%TF.GenerationSoftware,KiCad,Pcbnew,8.0.7*%
%TF.CreationDate,2025-05-16T10:15:14+02:00*%
%TF.ProjectId,PROJETPCB,50524f4a-4554-4504-9342-2e6b69636164,rev?*%
%TF.SameCoordinates,Original*%
%TF.FileFunction,Legend,Top*%
%TF.FilePolarity,Positive*%
%FSLAX46Y46*%
G04 Gerber Fmt 4.6, Leading zero omitted, Abs format (unit mm)*
G04 Created by KiCad (PCBNEW 8.0.7) date 2025-05-16 10:15:14*
%MOMM*%
%LPD*%
G01*
G04 APERTURE LIST*
%ADD10C,0.100000*%
%ADD11C,0.200000*%
%ADD12C,0.150000*%
%ADD13C,0.120000*%
G04 APERTURE END LIST*
D10*
X227971399Y-87232467D02*
X242971399Y-87232467D01*
X242202399Y-49538867D02*
X242202399Y-50758067D01*
X218050999Y-95326123D02*
X222826199Y-95326123D01*
X222826199Y-96326123D01*
X218050999Y-96326123D01*
X218050999Y-95326123D01*
G36*
X218050999Y-95326123D02*
G01*
X222826199Y-95326123D01*
X222826199Y-96326123D01*
X218050999Y-96326123D01*
X218050999Y-95326123D01*
G37*
X242202399Y-50758067D02*
X242758410Y-50095439D01*
X206782399Y-52984467D02*
X242782399Y-52984467D01*
X242202399Y-50758067D02*
X241646388Y-50095439D01*
X203873799Y-43290467D02*
X206173799Y-43290467D01*
X206173799Y-44290467D01*
X203873799Y-44290467D01*
X203873799Y-43290467D01*
G36*
X203873799Y-43290467D02*
G01*
X206173799Y-43290467D01*
X206173799Y-44290467D01*
X203873799Y-44290467D01*
X203873799Y-43290467D01*
G37*
X212838399Y-87232467D02*
X225438399Y-87232467D01*
D11*
G36*
X232694025Y-87594013D02*
G01*
X232767728Y-87667716D01*
X232810405Y-87838423D01*
X232810405Y-88180471D01*
X232767728Y-88351178D01*
X232694025Y-88424881D01*
X232624893Y-88459447D01*
X232462583Y-88459447D01*
X232393450Y-88424881D01*
X232319748Y-88351179D01*
X232277071Y-88180471D01*
X232277071Y-87838424D01*
X232319748Y-87667716D01*
X232393451Y-87594013D01*
X232462583Y-87559447D01*
X232624893Y-87559447D01*
X232694025Y-87594013D01*
G37*
G36*
X228633568Y-88145162D02*
G01*
X228387242Y-88145162D01*
X228510405Y-87775673D01*
X228633568Y-88145162D01*
G37*
G36*
X230728806Y-88145162D02*
G01*
X230482480Y-88145162D01*
X230605643Y-87775673D01*
X230728806Y-88145162D01*
G37*
G36*
X236694532Y-88781669D02*
G01*
X227922301Y-88781669D01*
X227922301Y-88546940D01*
X228044523Y-88546940D01*
X228047289Y-88585860D01*
X228064739Y-88620758D01*
X228094215Y-88646324D01*
X228131231Y-88658662D01*
X228170151Y-88655896D01*
X228205049Y-88638446D01*
X228230615Y-88608970D01*
X228238606Y-88591070D01*
X228320575Y-88345162D01*
X228700235Y-88345162D01*
X228782204Y-88591070D01*
X228790195Y-88608970D01*
X228815761Y-88638446D01*
X228850659Y-88655896D01*
X228889579Y-88658662D01*
X228926595Y-88646324D01*
X228956071Y-88620759D01*
X228973521Y-88585860D01*
X228976287Y-88546940D01*
X228971940Y-88527824D01*
X228615814Y-87459447D01*
X229143738Y-87459447D01*
X229143738Y-88559447D01*
X229145659Y-88578956D01*
X229160591Y-88615004D01*
X229188181Y-88642594D01*
X229224229Y-88657526D01*
X229263247Y-88657526D01*
X229299295Y-88642594D01*
X229326885Y-88615004D01*
X229341817Y-88578956D01*
X229343738Y-88559447D01*
X229343738Y-87836002D01*
X229785486Y-88609061D01*
X229788404Y-88613172D01*
X229789163Y-88615004D01*
X229791028Y-88616869D01*
X229796833Y-88625047D01*
X229807352Y-88633193D01*
X229816753Y-88642594D01*
X229822640Y-88645032D01*
X229827682Y-88648937D01*
X229840514Y-88652436D01*
X229852801Y-88657526D01*
X229859177Y-88657526D01*
X229865326Y-88659203D01*
X229878519Y-88657526D01*
X229891819Y-88657526D01*
X229897706Y-88655087D01*
X229904033Y-88654283D01*
X229915587Y-88647680D01*
X229927867Y-88642594D01*
X229932370Y-88638090D01*
X229937910Y-88634925D01*
X229946058Y-88624402D01*
X229955457Y-88615004D01*
X229957895Y-88609116D01*
X229961800Y-88604075D01*
X229965299Y-88591242D01*
X229970389Y-88578956D01*
X229971371Y-88568978D01*
X229972066Y-88566432D01*
X229971815Y-88564464D01*
X229972310Y-88559447D01*
X229972310Y-88546940D01*
X230139761Y-88546940D01*
X230142527Y-88585860D01*
X230159977Y-88620758D01*
X230189453Y-88646324D01*
X230226469Y-88658662D01*
X230265389Y-88655896D01*
X230300287Y-88638446D01*
X230325853Y-88608970D01*
X230333844Y-88591070D01*
X230415813Y-88345162D01*
X230795473Y-88345162D01*
X230877442Y-88591070D01*
X230885433Y-88608970D01*
X230910999Y-88638446D01*
X230945897Y-88655896D01*
X230984817Y-88658662D01*
X231021833Y-88646324D01*
X231051309Y-88620759D01*
X231068759Y-88585860D01*
X231071525Y-88546940D01*
X231067178Y-88527824D01*
X230711052Y-87459447D01*
X231238976Y-87459447D01*
X231238976Y-88559447D01*
X231240897Y-88578956D01*
X231255829Y-88615004D01*
X231283419Y-88642594D01*
X231319467Y-88657526D01*
X231338976Y-88659447D01*
X231862786Y-88659447D01*
X231882295Y-88657526D01*
X231918343Y-88642594D01*
X231945933Y-88615004D01*
X231960865Y-88578956D01*
X231960865Y-88539938D01*
X231945933Y-88503890D01*
X231918343Y-88476300D01*
X231882295Y-88461368D01*
X231862786Y-88459447D01*
X231438976Y-88459447D01*
X231438976Y-87826114D01*
X232077071Y-87826114D01*
X232077071Y-88192781D01*
X232077406Y-88196183D01*
X232077189Y-88197642D01*
X232078268Y-88204939D01*
X232078992Y-88212290D01*
X232079556Y-88213653D01*
X232080057Y-88217035D01*
X232132438Y-88426558D01*
X232139033Y-88445019D01*
X232143459Y-88450993D01*
X232146305Y-88457862D01*
X232158741Y-88473016D01*
X232263503Y-88577778D01*
X232271172Y-88584072D01*
X232272903Y-88586067D01*
X232275910Y-88587960D01*
X232278657Y-88590214D01*
X232281096Y-88591224D01*
X232289493Y-88596510D01*
X232394255Y-88648890D01*
X232412564Y-88655896D01*
X232416146Y-88656150D01*
X232419467Y-88657526D01*
X232438976Y-88659447D01*
X232648500Y-88659447D01*
X232668009Y-88657526D01*
X232671329Y-88656150D01*
X232674912Y-88655896D01*
X232693221Y-88648890D01*
X232797983Y-88596510D01*
X232806379Y-88591224D01*
X232808819Y-88590214D01*
X232811565Y-88587960D01*
X232814573Y-88586067D01*
X232816303Y-88584072D01*
X232823973Y-88577778D01*
X232928735Y-88473016D01*
X232941171Y-88457862D01*
X232944016Y-88450993D01*
X232948443Y-88445019D01*
X232955038Y-88426559D01*
X233007419Y-88217035D01*
X233007919Y-88213653D01*
X233008484Y-88212290D01*
X233009207Y-88204941D01*
X233010287Y-88197643D01*
X233010069Y-88196184D01*
X233010405Y-88192781D01*
X233010405Y-87930876D01*
X233229452Y-87930876D01*
X233229452Y-88088019D01*
X233229787Y-88091421D01*
X233229570Y-88092880D01*
X233230649Y-88100177D01*
X233231373Y-88107528D01*
X233231937Y-88108891D01*
X233232438Y-88112273D01*
X233284819Y-88321796D01*
X233285332Y-88323233D01*
X233285384Y-88323956D01*
X233288492Y-88332080D01*
X233291414Y-88340257D01*
X233291844Y-88340837D01*
X233292390Y-88342264D01*
X233344771Y-88447026D01*
X233350056Y-88455422D01*
X233351067Y-88457862D01*
X233353320Y-88460608D01*
X233355214Y-88463616D01*
X233357208Y-88465345D01*
X233363503Y-88473016D01*
X233468265Y-88577778D01*
X233483419Y-88590214D01*
X233486737Y-88591588D01*
X233489453Y-88593944D01*
X233507354Y-88601936D01*
X233664497Y-88654316D01*
X233674169Y-88656515D01*
X233676610Y-88657526D01*
X233680147Y-88657874D01*
X233683612Y-88658662D01*
X233686245Y-88658474D01*
X233696119Y-88659447D01*
X233800881Y-88659447D01*
X233810754Y-88658474D01*
X233813388Y-88658662D01*
X233816852Y-88657874D01*
X233820390Y-88657526D01*
X233822830Y-88656515D01*
X233832503Y-88654316D01*
X233989646Y-88601935D01*
X234007547Y-88593944D01*
X234010262Y-88591588D01*
X234013581Y-88590214D01*
X234028735Y-88577778D01*
X234081116Y-88525397D01*
X234093552Y-88510243D01*
X234108484Y-88474195D01*
X234110405Y-88454686D01*
X234110405Y-88088019D01*
X234108484Y-88068510D01*
X234093552Y-88032462D01*
X234065962Y-88004872D01*
X234029914Y-87989940D01*
X234010405Y-87988019D01*
X233800881Y-87988019D01*
X233781372Y-87989940D01*
X233745324Y-88004872D01*
X233717734Y-88032462D01*
X233702802Y-88068510D01*
X233702802Y-88107528D01*
X233717734Y-88143576D01*
X233745324Y-88171166D01*
X233781372Y-88186098D01*
X233800881Y-88188019D01*
X233910405Y-88188019D01*
X233910405Y-88413264D01*
X233904005Y-88419663D01*
X233784652Y-88459447D01*
X233712345Y-88459447D01*
X233592994Y-88419663D01*
X233516399Y-88343068D01*
X233476184Y-88262638D01*
X233429452Y-88075709D01*
X233429452Y-87943186D01*
X233476184Y-87756256D01*
X233516399Y-87675826D01*
X233592995Y-87599230D01*
X233712346Y-87559447D01*
X233829655Y-87559447D01*
X233913302Y-87601271D01*
X233931611Y-87608277D01*
X233970531Y-87611043D01*
X234007547Y-87598704D01*
X234037023Y-87573139D01*
X234054473Y-87538241D01*
X234057238Y-87499321D01*
X234044900Y-87462305D01*
X234042421Y-87459447D01*
X235219928Y-87459447D01*
X235219928Y-88559447D01*
X235221849Y-88578956D01*
X235236781Y-88615004D01*
X235264371Y-88642594D01*
X235300419Y-88657526D01*
X235339437Y-88657526D01*
X235375485Y-88642594D01*
X235403075Y-88615004D01*
X235418007Y-88578956D01*
X235419928Y-88559447D01*
X235419928Y-87459447D01*
X235743738Y-87459447D01*
X235743738Y-88559447D01*
X235745659Y-88578956D01*
X235760591Y-88615004D01*
X235788181Y-88642594D01*
X235824229Y-88657526D01*
X235863247Y-88657526D01*
X235899295Y-88642594D01*
X235926885Y-88615004D01*
X235941817Y-88578956D01*
X235943738Y-88559447D01*
X235943738Y-87836002D01*
X236385486Y-88609061D01*
X236388404Y-88613172D01*
X236389163Y-88615004D01*
X236391028Y-88616869D01*
X236396833Y-88625047D01*
X236407352Y-88633193D01*
X236416753Y-88642594D01*
X236422640Y-88645032D01*
X236427682Y-88648937D01*
X236440514Y-88652436D01*
X236452801Y-88657526D01*
X236459177Y-88657526D01*
X236465326Y-88659203D01*
X236478519Y-88657526D01*
X236491819Y-88657526D01*
X236497706Y-88655087D01*
X236504033Y-88654283D01*
X236515587Y-88647680D01*
X236527867Y-88642594D01*
X236532370Y-88638090D01*
X236537910Y-88634925D01*
X236546058Y-88624402D01*
X236555457Y-88615004D01*
X236557895Y-88609116D01*
X236561800Y-88604075D01*
X236565299Y-88591242D01*
X236570389Y-88578956D01*
X236571371Y-88568978D01*
X236572066Y-88566432D01*
X236571815Y-88564464D01*
X236572310Y-88559447D01*
X236572310Y-87459447D01*
X236570389Y-87439938D01*
X236555457Y-87403890D01*
X236527867Y-87376300D01*
X236491819Y-87361368D01*
X236452801Y-87361368D01*
X236416753Y-87376300D01*
X236389163Y-87403890D01*
X236374231Y-87439938D01*
X236372310Y-87459447D01*
X236372310Y-88182890D01*
X235930562Y-87409833D01*
X235927643Y-87405722D01*
X235926885Y-87403890D01*
X235925018Y-87402023D01*
X235919215Y-87393848D01*
X235908700Y-87385705D01*
X235899295Y-87376300D01*
X235893404Y-87373860D01*
X235888366Y-87369958D01*
X235875538Y-87366459D01*
X235863247Y-87361368D01*
X235856871Y-87361368D01*
X235850722Y-87359691D01*
X235837529Y-87361368D01*
X235824229Y-87361368D01*
X235818340Y-87363807D01*
X235812016Y-87364611D01*
X235800466Y-87371211D01*
X235788181Y-87376300D01*
X235783673Y-87380807D01*
X235778139Y-87383970D01*
X235769996Y-87394484D01*
X235760591Y-87403890D01*
X235758151Y-87409780D01*
X235754249Y-87414819D01*
X235750750Y-87427646D01*
X235745659Y-87439938D01*
X235744676Y-87449917D01*
X235743982Y-87452463D01*
X235744232Y-87454429D01*
X235743738Y-87459447D01*
X235419928Y-87459447D01*
X235418007Y-87439938D01*
X235403075Y-87403890D01*
X235375485Y-87376300D01*
X235339437Y-87361368D01*
X235300419Y-87361368D01*
X235264371Y-87376300D01*
X235236781Y-87403890D01*
X235221849Y-87439938D01*
X235219928Y-87459447D01*
X234042421Y-87459447D01*
X234019335Y-87432828D01*
X234002745Y-87422385D01*
X233897983Y-87370004D01*
X233879675Y-87362998D01*
X233876091Y-87362743D01*
X233872771Y-87361368D01*
X233853262Y-87359447D01*
X233696119Y-87359447D01*
X233686245Y-87360419D01*
X233683611Y-87360232D01*
X233680147Y-87361019D01*
X233676610Y-87361368D01*
X233674168Y-87362379D01*
X233664496Y-87364579D01*
X233507353Y-87416960D01*
X233489453Y-87424951D01*
X233486737Y-87427306D01*
X233483419Y-87428681D01*
X233468265Y-87441117D01*
X233363503Y-87545879D01*
X233357208Y-87553549D01*
X233355214Y-87555279D01*
X233353320Y-87558286D01*
X233351067Y-87561033D01*
X233350056Y-87563472D01*
X233344771Y-87571869D01*
X233292390Y-87676631D01*
X233291844Y-87678057D01*
X233291414Y-87678638D01*
X233288492Y-87686814D01*
X233285384Y-87694939D01*
X233285332Y-87695661D01*
X233284819Y-87697099D01*
X233232438Y-87906622D01*
X233231937Y-87910003D01*
X233231373Y-87911367D01*
X233230649Y-87918717D01*
X233229570Y-87926015D01*
X233229787Y-87927473D01*
X233229452Y-87930876D01*
X233010405Y-87930876D01*
X233010405Y-87826114D01*
X233010069Y-87822710D01*
X233010287Y-87821252D01*
X233009207Y-87813953D01*
X233008484Y-87806605D01*
X233007919Y-87805241D01*
X233007419Y-87801860D01*
X232955038Y-87592336D01*
X232948443Y-87573876D01*
X232944016Y-87567901D01*
X232941171Y-87561033D01*
X232928735Y-87545879D01*
X232823973Y-87441117D01*
X232816302Y-87434822D01*
X232814573Y-87432828D01*
X232811565Y-87430934D01*
X232808819Y-87428681D01*
X232806379Y-87427670D01*
X232797983Y-87422385D01*
X232693221Y-87370004D01*
X232674913Y-87362998D01*
X232671329Y-87362743D01*
X232668009Y-87361368D01*
X232648500Y-87359447D01*
X232438976Y-87359447D01*
X232419467Y-87361368D01*
X232416146Y-87362743D01*
X232412563Y-87362998D01*
X232394254Y-87370004D01*
X232289493Y-87422385D01*
X232281094Y-87427671D01*
X232278657Y-87428681D01*
X232275913Y-87430932D01*
X232272902Y-87432828D01*
X232271169Y-87434825D01*
X232263503Y-87441117D01*
X232158741Y-87545879D01*
X232146305Y-87561033D01*
X232143459Y-87567901D01*
X232139033Y-87573876D01*
X232132438Y-87592337D01*
X232080057Y-87801860D01*
X232079556Y-87805241D01*
X232078992Y-87806605D01*
X232078268Y-87813955D01*
X232077189Y-87821253D01*
X232077406Y-87822711D01*
X232077071Y-87826114D01*
X231438976Y-87826114D01*
X231438976Y-87459447D01*
X231437055Y-87439938D01*
X231422123Y-87403890D01*
X231394533Y-87376300D01*
X231358485Y-87361368D01*
X231319467Y-87361368D01*
X231283419Y-87376300D01*
X231255829Y-87403890D01*
X231240897Y-87439938D01*
X231238976Y-87459447D01*
X230711052Y-87459447D01*
X230700511Y-87427824D01*
X230692520Y-87409924D01*
X230687836Y-87404524D01*
X230684642Y-87398135D01*
X230675167Y-87389917D01*
X230666954Y-87380448D01*
X230660566Y-87377254D01*
X230655166Y-87372570D01*
X230643267Y-87368604D01*
X230632056Y-87362998D01*
X230624928Y-87362491D01*
X230618150Y-87360232D01*
X230605643Y-87361120D01*
X230593136Y-87360232D01*
X230586357Y-87362491D01*
X230579230Y-87362998D01*
X230568018Y-87368604D01*
X230556120Y-87372570D01*
X230550719Y-87377253D01*
X230544332Y-87380448D01*
X230536116Y-87389920D01*
X230526644Y-87398136D01*
X230523449Y-87404523D01*
X230518766Y-87409924D01*
X230510775Y-87427824D01*
X230144108Y-88527824D01*
X230139761Y-88546940D01*
X229972310Y-88546940D01*
X229972310Y-87459447D01*
X229970389Y-87439938D01*
X229955457Y-87403890D01*
X229927867Y-87376300D01*
X229891819Y-87361368D01*
X229852801Y-87361368D01*
X229816753Y-87376300D01*
X229789163Y-87403890D01*
X229774231Y-87439938D01*
X229772310Y-87459447D01*
X229772310Y-88182890D01*
X229330562Y-87409833D01*
X229327643Y-87405722D01*
X229326885Y-87403890D01*
X229325018Y-87402023D01*
X229319215Y-87393848D01*
X229308700Y-87385705D01*
X229299295Y-87376300D01*
X229293404Y-87373860D01*
X229288366Y-87369958D01*
X229275538Y-87366459D01*
X229263247Y-87361368D01*
X229256871Y-87361368D01*
X229250722Y-87359691D01*
X229237529Y-87361368D01*
X229224229Y-87361368D01*
X229218340Y-87363807D01*
X229212016Y-87364611D01*
X229200466Y-87371211D01*
X229188181Y-87376300D01*
X229183673Y-87380807D01*
X229178139Y-87383970D01*
X229169996Y-87394484D01*
X229160591Y-87403890D01*
X229158151Y-87409780D01*
X229154249Y-87414819D01*
X229150750Y-87427646D01*
X229145659Y-87439938D01*
X229144676Y-87449917D01*
X229143982Y-87452463D01*
X229144232Y-87454429D01*
X229143738Y-87459447D01*
X228615814Y-87459447D01*
X228605273Y-87427824D01*
X228597282Y-87409924D01*
X228592598Y-87404524D01*
X228589404Y-87398135D01*
X228579929Y-87389917D01*
X228571716Y-87380448D01*
X228565328Y-87377254D01*
X228559928Y-87372570D01*
X228548029Y-87368604D01*
X228536818Y-87362998D01*
X228529690Y-87362491D01*
X228522912Y-87360232D01*
X228510405Y-87361120D01*
X228497898Y-87360232D01*
X228491119Y-87362491D01*
X228483992Y-87362998D01*
X228472780Y-87368604D01*
X228460882Y-87372570D01*
X228455481Y-87377253D01*
X228449094Y-87380448D01*
X228440878Y-87389920D01*
X228431406Y-87398136D01*
X228428211Y-87404523D01*
X228423528Y-87409924D01*
X228415537Y-87427824D01*
X228048870Y-88527824D01*
X228044523Y-88546940D01*
X227922301Y-88546940D01*
X227922301Y-87237225D01*
X236694532Y-87237225D01*
X236694532Y-88781669D01*
G37*
D10*
X242674818Y-52029154D02*
X242198627Y-52362487D01*
X242674818Y-52600582D02*
X241674818Y-52600582D01*
X241674818Y-52600582D02*
X241674818Y-52219630D01*
X241674818Y-52219630D02*
X241722437Y-52124392D01*
X241722437Y-52124392D02*
X241770056Y-52076773D01*
X241770056Y-52076773D02*
X241865294Y-52029154D01*
X241865294Y-52029154D02*
X242008151Y-52029154D01*
X242008151Y-52029154D02*
X242103389Y-52076773D01*
X242103389Y-52076773D02*
X242151008Y-52124392D01*
X242151008Y-52124392D02*
X242198627Y-52219630D01*
X242198627Y-52219630D02*
X242198627Y-52600582D01*
X241674818Y-51695820D02*
X242674818Y-51029154D01*
X241674818Y-51029154D02*
X242674818Y-51695820D01*
D11*
X239701879Y-91584793D02*
X239701879Y-90989555D01*
X240059022Y-91703841D02*
X238809022Y-91287174D01*
X238809022Y-91287174D02*
X240059022Y-90870508D01*
X239225689Y-89918126D02*
X240059022Y-89918126D01*
X238749499Y-90215745D02*
X239642356Y-90513364D01*
X239642356Y-90513364D02*
X239642356Y-89739555D01*
X234621879Y-91584793D02*
X234621879Y-90989555D01*
X234979022Y-91703841D02*
X233729022Y-91287174D01*
X233729022Y-91287174D02*
X234979022Y-90870508D01*
X233848070Y-90513364D02*
X233788546Y-90453840D01*
X233788546Y-90453840D02*
X233729022Y-90334793D01*
X233729022Y-90334793D02*
X233729022Y-90037174D01*
X233729022Y-90037174D02*
X233788546Y-89918126D01*
X233788546Y-89918126D02*
X233848070Y-89858602D01*
X233848070Y-89858602D02*
X233967118Y-89799079D01*
X233967118Y-89799079D02*
X234086165Y-89799079D01*
X234086165Y-89799079D02*
X234264737Y-89858602D01*
X234264737Y-89858602D02*
X234979022Y-90572888D01*
X234979022Y-90572888D02*
X234979022Y-89799079D01*
X229541879Y-91584793D02*
X229541879Y-90989555D01*
X229899022Y-91703841D02*
X228649022Y-91287174D01*
X228649022Y-91287174D02*
X229899022Y-90870508D01*
X228649022Y-90215745D02*
X228649022Y-90096698D01*
X228649022Y-90096698D02*
X228708546Y-89977650D01*
X228708546Y-89977650D02*
X228768070Y-89918126D01*
X228768070Y-89918126D02*
X228887118Y-89858602D01*
X228887118Y-89858602D02*
X229125213Y-89799079D01*
X229125213Y-89799079D02*
X229422832Y-89799079D01*
X229422832Y-89799079D02*
X229660927Y-89858602D01*
X229660927Y-89858602D02*
X229779975Y-89918126D01*
X229779975Y-89918126D02*
X229839499Y-89977650D01*
X229839499Y-89977650D02*
X229899022Y-90096698D01*
X229899022Y-90096698D02*
X229899022Y-90215745D01*
X229899022Y-90215745D02*
X229839499Y-90334793D01*
X229839499Y-90334793D02*
X229779975Y-90394317D01*
X229779975Y-90394317D02*
X229660927Y-90453840D01*
X229660927Y-90453840D02*
X229422832Y-90513364D01*
X229422832Y-90513364D02*
X229125213Y-90513364D01*
X229125213Y-90513364D02*
X228887118Y-90453840D01*
X228887118Y-90453840D02*
X228768070Y-90394317D01*
X228768070Y-90394317D02*
X228708546Y-90334793D01*
X228708546Y-90334793D02*
X228649022Y-90215745D01*
X242241879Y-91584793D02*
X242241879Y-90989555D01*
X242599022Y-91703841D02*
X241349022Y-91287174D01*
X241349022Y-91287174D02*
X242599022Y-90870508D01*
X241349022Y-89858602D02*
X241349022Y-90453840D01*
X241349022Y-90453840D02*
X241944260Y-90513364D01*
X241944260Y-90513364D02*
X241884737Y-90453840D01*
X241884737Y-90453840D02*
X241825213Y-90334793D01*
X241825213Y-90334793D02*
X241825213Y-90037174D01*
X241825213Y-90037174D02*
X241884737Y-89918126D01*
X241884737Y-89918126D02*
X241944260Y-89858602D01*
X241944260Y-89858602D02*
X242063308Y-89799079D01*
X242063308Y-89799079D02*
X242360927Y-89799079D01*
X242360927Y-89799079D02*
X242479975Y-89858602D01*
X242479975Y-89858602D02*
X242539499Y-89918126D01*
X242539499Y-89918126D02*
X242599022Y-90037174D01*
X242599022Y-90037174D02*
X242599022Y-90334793D01*
X242599022Y-90334793D02*
X242539499Y-90453840D01*
X242539499Y-90453840D02*
X242479975Y-90513364D01*
X232081879Y-91584793D02*
X232081879Y-90989555D01*
X232439022Y-91703841D02*
X231189022Y-91287174D01*
X231189022Y-91287174D02*
X232439022Y-90870508D01*
X232439022Y-89799079D02*
X232439022Y-90513364D01*
X232439022Y-90156221D02*
X231189022Y-90156221D01*
X231189022Y-90156221D02*
X231367594Y-90275269D01*
X231367594Y-90275269D02*
X231486641Y-90394317D01*
X231486641Y-90394317D02*
X231546165Y-90513364D01*
X237161879Y-91584793D02*
X237161879Y-90989555D01*
X237519022Y-91703841D02*
X236269022Y-91287174D01*
X236269022Y-91287174D02*
X237519022Y-90870508D01*
X236269022Y-90572888D02*
X236269022Y-89799079D01*
X236269022Y-89799079D02*
X236745213Y-90215745D01*
X236745213Y-90215745D02*
X236745213Y-90037174D01*
X236745213Y-90037174D02*
X236804737Y-89918126D01*
X236804737Y-89918126D02*
X236864260Y-89858602D01*
X236864260Y-89858602D02*
X236983308Y-89799079D01*
X236983308Y-89799079D02*
X237280927Y-89799079D01*
X237280927Y-89799079D02*
X237399975Y-89858602D01*
X237399975Y-89858602D02*
X237459499Y-89918126D01*
X237459499Y-89918126D02*
X237519022Y-90037174D01*
X237519022Y-90037174D02*
X237519022Y-90394317D01*
X237519022Y-90394317D02*
X237459499Y-90513364D01*
X237459499Y-90513364D02*
X237399975Y-90572888D01*
X241539022Y-48337174D02*
X241539022Y-48218127D01*
X241539022Y-48218127D02*
X241598546Y-48099079D01*
X241598546Y-48099079D02*
X241658070Y-48039555D01*
X241658070Y-48039555D02*
X241777118Y-47980031D01*
X241777118Y-47980031D02*
X242015213Y-47920508D01*
X242015213Y-47920508D02*
X242312832Y-47920508D01*
X242312832Y-47920508D02*
X242550927Y-47980031D01*
X242550927Y-47980031D02*
X242669975Y-48039555D01*
X242669975Y-48039555D02*
X242729499Y-48099079D01*
X242729499Y-48099079D02*
X242789022Y-48218127D01*
X242789022Y-48218127D02*
X242789022Y-48337174D01*
X242789022Y-48337174D02*
X242729499Y-48456222D01*
X242729499Y-48456222D02*
X242669975Y-48515746D01*
X242669975Y-48515746D02*
X242550927Y-48575269D01*
X242550927Y-48575269D02*
X242312832Y-48634793D01*
X242312832Y-48634793D02*
X242015213Y-48634793D01*
X242015213Y-48634793D02*
X241777118Y-48575269D01*
X241777118Y-48575269D02*
X241658070Y-48515746D01*
X241658070Y-48515746D02*
X241598546Y-48456222D01*
X241598546Y-48456222D02*
X241539022Y-48337174D01*
D12*
X222424819Y-45958333D02*
X223139104Y-45958333D01*
X223139104Y-45958333D02*
X223281961Y-46005952D01*
X223281961Y-46005952D02*
X223377200Y-46101190D01*
X223377200Y-46101190D02*
X223424819Y-46244047D01*
X223424819Y-46244047D02*
X223424819Y-46339285D01*
X223424819Y-44958333D02*
X223424819Y-45529761D01*
X223424819Y-45244047D02*
X222424819Y-45244047D01*
X222424819Y-45244047D02*
X222567676Y-45339285D01*
X222567676Y-45339285D02*
X222662914Y-45434523D01*
X222662914Y-45434523D02*
X222710533Y-45529761D01*
X244971819Y-75563952D02*
X245686104Y-75563952D01*
X245686104Y-75563952D02*
X245828961Y-75611571D01*
X245828961Y-75611571D02*
X245924200Y-75706809D01*
X245924200Y-75706809D02*
X245971819Y-75849666D01*
X245971819Y-75849666D02*
X245971819Y-75944904D01*
X244971819Y-74897285D02*
X244971819Y-74706809D01*
X244971819Y-74706809D02*
X245019438Y-74611571D01*
X245019438Y-74611571D02*
X245114676Y-74516333D01*
X245114676Y-74516333D02*
X245305152Y-74468714D01*
X245305152Y-74468714D02*
X245638485Y-74468714D01*
X245638485Y-74468714D02*
X245828961Y-74516333D01*
X245828961Y-74516333D02*
X245924200Y-74611571D01*
X245924200Y-74611571D02*
X245971819Y-74706809D01*
X245971819Y-74706809D02*
X245971819Y-74897285D01*
X245971819Y-74897285D02*
X245924200Y-74992523D01*
X245924200Y-74992523D02*
X245828961Y-75087761D01*
X245828961Y-75087761D02*
X245638485Y-75135380D01*
X245638485Y-75135380D02*
X245305152Y-75135380D01*
X245305152Y-75135380D02*
X245114676Y-75087761D01*
X245114676Y-75087761D02*
X245019438Y-74992523D01*
X245019438Y-74992523D02*
X244971819Y-74897285D01*
X245495628Y-73849666D02*
X245971819Y-73849666D01*
X244971819Y-74182999D02*
X245495628Y-73849666D01*
X245495628Y-73849666D02*
X244971819Y-73516333D01*
X245924200Y-73230618D02*
X245971819Y-73087761D01*
X245971819Y-73087761D02*
X245971819Y-72849666D01*
X245971819Y-72849666D02*
X245924200Y-72754428D01*
X245924200Y-72754428D02*
X245876580Y-72706809D01*
X245876580Y-72706809D02*
X245781342Y-72659190D01*
X245781342Y-72659190D02*
X245686104Y-72659190D01*
X245686104Y-72659190D02*
X245590866Y-72706809D01*
X245590866Y-72706809D02*
X245543247Y-72754428D01*
X245543247Y-72754428D02*
X245495628Y-72849666D01*
X245495628Y-72849666D02*
X245448009Y-73040142D01*
X245448009Y-73040142D02*
X245400390Y-73135380D01*
X245400390Y-73135380D02*
X245352771Y-73182999D01*
X245352771Y-73182999D02*
X245257533Y-73230618D01*
X245257533Y-73230618D02*
X245162295Y-73230618D01*
X245162295Y-73230618D02*
X245067057Y-73182999D01*
X245067057Y-73182999D02*
X245019438Y-73135380D01*
X245019438Y-73135380D02*
X244971819Y-73040142D01*
X244971819Y-73040142D02*
X244971819Y-72802047D01*
X244971819Y-72802047D02*
X245019438Y-72659190D01*
X244971819Y-72373475D02*
X244971819Y-71802047D01*
X245971819Y-72087761D02*
X244971819Y-72087761D01*
X245971819Y-71468713D02*
X244971819Y-71468713D01*
X245876580Y-70421095D02*
X245924200Y-70468714D01*
X245924200Y-70468714D02*
X245971819Y-70611571D01*
X245971819Y-70611571D02*
X245971819Y-70706809D01*
X245971819Y-70706809D02*
X245924200Y-70849666D01*
X245924200Y-70849666D02*
X245828961Y-70944904D01*
X245828961Y-70944904D02*
X245733723Y-70992523D01*
X245733723Y-70992523D02*
X245543247Y-71040142D01*
X245543247Y-71040142D02*
X245400390Y-71040142D01*
X245400390Y-71040142D02*
X245209914Y-70992523D01*
X245209914Y-70992523D02*
X245114676Y-70944904D01*
X245114676Y-70944904D02*
X245019438Y-70849666D01*
X245019438Y-70849666D02*
X244971819Y-70706809D01*
X244971819Y-70706809D02*
X244971819Y-70611571D01*
X244971819Y-70611571D02*
X245019438Y-70468714D01*
X245019438Y-70468714D02*
X245067057Y-70421095D01*
X245971819Y-69992523D02*
X244971819Y-69992523D01*
X245971819Y-69421095D02*
X245400390Y-69849666D01*
X244971819Y-69421095D02*
X245543247Y-69992523D01*
X245971819Y-68468714D02*
X245971819Y-69040142D01*
X245971819Y-68754428D02*
X244971819Y-68754428D01*
X244971819Y-68754428D02*
X245114676Y-68849666D01*
X245114676Y-68849666D02*
X245209914Y-68944904D01*
X245209914Y-68944904D02*
X245257533Y-69040142D01*
X226159819Y-94233333D02*
X226874104Y-94233333D01*
X226874104Y-94233333D02*
X227016961Y-94280952D01*
X227016961Y-94280952D02*
X227112200Y-94376190D01*
X227112200Y-94376190D02*
X227159819Y-94519047D01*
X227159819Y-94519047D02*
X227159819Y-94614285D01*
X226159819Y-93280952D02*
X226159819Y-93757142D01*
X226159819Y-93757142D02*
X226636009Y-93804761D01*
X226636009Y-93804761D02*
X226588390Y-93757142D01*
X226588390Y-93757142D02*
X226540771Y-93661904D01*
X226540771Y-93661904D02*
X226540771Y-93423809D01*
X226540771Y-93423809D02*
X226588390Y-93328571D01*
X226588390Y-93328571D02*
X226636009Y-93280952D01*
X226636009Y-93280952D02*
X226731247Y-93233333D01*
X226731247Y-93233333D02*
X226969342Y-93233333D01*
X226969342Y-93233333D02*
X227064580Y-93280952D01*
X227064580Y-93280952D02*
X227112200Y-93328571D01*
X227112200Y-93328571D02*
X227159819Y-93423809D01*
X227159819Y-93423809D02*
X227159819Y-93661904D01*
X227159819Y-93661904D02*
X227112200Y-93757142D01*
X227112200Y-93757142D02*
X227064580Y-93804761D01*
X203209819Y-94208333D02*
X203924104Y-94208333D01*
X203924104Y-94208333D02*
X204066961Y-94255952D01*
X204066961Y-94255952D02*
X204162200Y-94351190D01*
X204162200Y-94351190D02*
X204209819Y-94494047D01*
X204209819Y-94494047D02*
X204209819Y-94589285D01*
X203543152Y-93303571D02*
X204209819Y-93303571D01*
X203162200Y-93541666D02*
X203876485Y-93779761D01*
X203876485Y-93779761D02*
X203876485Y-93160714D01*
X180712819Y-76647666D02*
X180712819Y-77123856D01*
X180712819Y-77123856D02*
X179712819Y-77123856D01*
X180665200Y-76361951D02*
X180712819Y-76219094D01*
X180712819Y-76219094D02*
X180712819Y-75980999D01*
X180712819Y-75980999D02*
X180665200Y-75885761D01*
X180665200Y-75885761D02*
X180617580Y-75838142D01*
X180617580Y-75838142D02*
X180522342Y-75790523D01*
X180522342Y-75790523D02*
X180427104Y-75790523D01*
X180427104Y-75790523D02*
X180331866Y-75838142D01*
X180331866Y-75838142D02*
X180284247Y-75885761D01*
X180284247Y-75885761D02*
X180236628Y-75980999D01*
X180236628Y-75980999D02*
X180189009Y-76171475D01*
X180189009Y-76171475D02*
X180141390Y-76266713D01*
X180141390Y-76266713D02*
X180093771Y-76314332D01*
X180093771Y-76314332D02*
X179998533Y-76361951D01*
X179998533Y-76361951D02*
X179903295Y-76361951D01*
X179903295Y-76361951D02*
X179808057Y-76314332D01*
X179808057Y-76314332D02*
X179760438Y-76266713D01*
X179760438Y-76266713D02*
X179712819Y-76171475D01*
X179712819Y-76171475D02*
X179712819Y-75933380D01*
X179712819Y-75933380D02*
X179760438Y-75790523D01*
X180712819Y-75361951D02*
X179712819Y-75361951D01*
X179712819Y-75361951D02*
X180427104Y-75028618D01*
X180427104Y-75028618D02*
X179712819Y-74695285D01*
X179712819Y-74695285D02*
X180712819Y-74695285D01*
X180712819Y-74171475D02*
X180712819Y-73980999D01*
X180712819Y-73980999D02*
X180665200Y-73885761D01*
X180665200Y-73885761D02*
X180617580Y-73838142D01*
X180617580Y-73838142D02*
X180474723Y-73742904D01*
X180474723Y-73742904D02*
X180284247Y-73695285D01*
X180284247Y-73695285D02*
X179903295Y-73695285D01*
X179903295Y-73695285D02*
X179808057Y-73742904D01*
X179808057Y-73742904D02*
X179760438Y-73790523D01*
X179760438Y-73790523D02*
X179712819Y-73885761D01*
X179712819Y-73885761D02*
X179712819Y-74076237D01*
X179712819Y-74076237D02*
X179760438Y-74171475D01*
X179760438Y-74171475D02*
X179808057Y-74219094D01*
X179808057Y-74219094D02*
X179903295Y-74266713D01*
X179903295Y-74266713D02*
X180141390Y-74266713D01*
X180141390Y-74266713D02*
X180236628Y-74219094D01*
X180236628Y-74219094D02*
X180284247Y-74171475D01*
X180284247Y-74171475D02*
X180331866Y-74076237D01*
X180331866Y-74076237D02*
X180331866Y-73885761D01*
X180331866Y-73885761D02*
X180284247Y-73790523D01*
X180284247Y-73790523D02*
X180236628Y-73742904D01*
X180236628Y-73742904D02*
X180141390Y-73695285D01*
X180712819Y-73266713D02*
X179712819Y-73266713D01*
X179712819Y-73266713D02*
X179712819Y-73028618D01*
X179712819Y-73028618D02*
X179760438Y-72885761D01*
X179760438Y-72885761D02*
X179855676Y-72790523D01*
X179855676Y-72790523D02*
X179950914Y-72742904D01*
X179950914Y-72742904D02*
X180141390Y-72695285D01*
X180141390Y-72695285D02*
X180284247Y-72695285D01*
X180284247Y-72695285D02*
X180474723Y-72742904D01*
X180474723Y-72742904D02*
X180569961Y-72790523D01*
X180569961Y-72790523D02*
X180665200Y-72885761D01*
X180665200Y-72885761D02*
X180712819Y-73028618D01*
X180712819Y-73028618D02*
X180712819Y-73266713D01*
X180665200Y-72314332D02*
X180712819Y-72171475D01*
X180712819Y-72171475D02*
X180712819Y-71933380D01*
X180712819Y-71933380D02*
X180665200Y-71838142D01*
X180665200Y-71838142D02*
X180617580Y-71790523D01*
X180617580Y-71790523D02*
X180522342Y-71742904D01*
X180522342Y-71742904D02*
X180427104Y-71742904D01*
X180427104Y-71742904D02*
X180331866Y-71790523D01*
X180331866Y-71790523D02*
X180284247Y-71838142D01*
X180284247Y-71838142D02*
X180236628Y-71933380D01*
X180236628Y-71933380D02*
X180189009Y-72123856D01*
X180189009Y-72123856D02*
X180141390Y-72219094D01*
X180141390Y-72219094D02*
X180093771Y-72266713D01*
X180093771Y-72266713D02*
X179998533Y-72314332D01*
X179998533Y-72314332D02*
X179903295Y-72314332D01*
X179903295Y-72314332D02*
X179808057Y-72266713D01*
X179808057Y-72266713D02*
X179760438Y-72219094D01*
X179760438Y-72219094D02*
X179712819Y-72123856D01*
X179712819Y-72123856D02*
X179712819Y-71885761D01*
X179712819Y-71885761D02*
X179760438Y-71742904D01*
X180712819Y-70790523D02*
X180712819Y-71361951D01*
X180712819Y-71076237D02*
X179712819Y-71076237D01*
X179712819Y-71076237D02*
X179855676Y-71171475D01*
X179855676Y-71171475D02*
X179950914Y-71266713D01*
X179950914Y-71266713D02*
X179998533Y-71361951D01*
X179769104Y-63021428D02*
X179769104Y-62545238D01*
X180054819Y-63116666D02*
X179054819Y-62783333D01*
X179054819Y-62783333D02*
X180054819Y-62450000D01*
X180007200Y-62164285D02*
X180054819Y-62021428D01*
X180054819Y-62021428D02*
X180054819Y-61783333D01*
X180054819Y-61783333D02*
X180007200Y-61688095D01*
X180007200Y-61688095D02*
X179959580Y-61640476D01*
X179959580Y-61640476D02*
X179864342Y-61592857D01*
X179864342Y-61592857D02*
X179769104Y-61592857D01*
X179769104Y-61592857D02*
X179673866Y-61640476D01*
X179673866Y-61640476D02*
X179626247Y-61688095D01*
X179626247Y-61688095D02*
X179578628Y-61783333D01*
X179578628Y-61783333D02*
X179531009Y-61973809D01*
X179531009Y-61973809D02*
X179483390Y-62069047D01*
X179483390Y-62069047D02*
X179435771Y-62116666D01*
X179435771Y-62116666D02*
X179340533Y-62164285D01*
X179340533Y-62164285D02*
X179245295Y-62164285D01*
X179245295Y-62164285D02*
X179150057Y-62116666D01*
X179150057Y-62116666D02*
X179102438Y-62069047D01*
X179102438Y-62069047D02*
X179054819Y-61973809D01*
X179054819Y-61973809D02*
X179054819Y-61735714D01*
X179054819Y-61735714D02*
X179102438Y-61592857D01*
X179054819Y-60688095D02*
X179054819Y-61164285D01*
X179054819Y-61164285D02*
X179531009Y-61211904D01*
X179531009Y-61211904D02*
X179483390Y-61164285D01*
X179483390Y-61164285D02*
X179435771Y-61069047D01*
X179435771Y-61069047D02*
X179435771Y-60830952D01*
X179435771Y-60830952D02*
X179483390Y-60735714D01*
X179483390Y-60735714D02*
X179531009Y-60688095D01*
X179531009Y-60688095D02*
X179626247Y-60640476D01*
X179626247Y-60640476D02*
X179864342Y-60640476D01*
X179864342Y-60640476D02*
X179959580Y-60688095D01*
X179959580Y-60688095D02*
X180007200Y-60735714D01*
X180007200Y-60735714D02*
X180054819Y-60830952D01*
X180054819Y-60830952D02*
X180054819Y-61069047D01*
X180054819Y-61069047D02*
X180007200Y-61164285D01*
X180007200Y-61164285D02*
X179959580Y-61211904D01*
X179054819Y-60021428D02*
X179054819Y-59926190D01*
X179054819Y-59926190D02*
X179102438Y-59830952D01*
X179102438Y-59830952D02*
X179150057Y-59783333D01*
X179150057Y-59783333D02*
X179245295Y-59735714D01*
X179245295Y-59735714D02*
X179435771Y-59688095D01*
X179435771Y-59688095D02*
X179673866Y-59688095D01*
X179673866Y-59688095D02*
X179864342Y-59735714D01*
X179864342Y-59735714D02*
X179959580Y-59783333D01*
X179959580Y-59783333D02*
X180007200Y-59830952D01*
X180007200Y-59830952D02*
X180054819Y-59926190D01*
X180054819Y-59926190D02*
X180054819Y-60021428D01*
X180054819Y-60021428D02*
X180007200Y-60116666D01*
X180007200Y-60116666D02*
X179959580Y-60164285D01*
X179959580Y-60164285D02*
X179864342Y-60211904D01*
X179864342Y-60211904D02*
X179673866Y-60259523D01*
X179673866Y-60259523D02*
X179435771Y-60259523D01*
X179435771Y-60259523D02*
X179245295Y-60211904D01*
X179245295Y-60211904D02*
X179150057Y-60164285D01*
X179150057Y-60164285D02*
X179102438Y-60116666D01*
X179102438Y-60116666D02*
X179054819Y-60021428D01*
X179388152Y-58830952D02*
X180054819Y-58830952D01*
X179007200Y-59069047D02*
X179721485Y-59307142D01*
X179721485Y-59307142D02*
X179721485Y-58688095D01*
X179483390Y-58164285D02*
X179435771Y-58259523D01*
X179435771Y-58259523D02*
X179388152Y-58307142D01*
X179388152Y-58307142D02*
X179292914Y-58354761D01*
X179292914Y-58354761D02*
X179245295Y-58354761D01*
X179245295Y-58354761D02*
X179150057Y-58307142D01*
X179150057Y-58307142D02*
X179102438Y-58259523D01*
X179102438Y-58259523D02*
X179054819Y-58164285D01*
X179054819Y-58164285D02*
X179054819Y-57973809D01*
X179054819Y-57973809D02*
X179102438Y-57878571D01*
X179102438Y-57878571D02*
X179150057Y-57830952D01*
X179150057Y-57830952D02*
X179245295Y-57783333D01*
X179245295Y-57783333D02*
X179292914Y-57783333D01*
X179292914Y-57783333D02*
X179388152Y-57830952D01*
X179388152Y-57830952D02*
X179435771Y-57878571D01*
X179435771Y-57878571D02*
X179483390Y-57973809D01*
X179483390Y-57973809D02*
X179483390Y-58164285D01*
X179483390Y-58164285D02*
X179531009Y-58259523D01*
X179531009Y-58259523D02*
X179578628Y-58307142D01*
X179578628Y-58307142D02*
X179673866Y-58354761D01*
X179673866Y-58354761D02*
X179864342Y-58354761D01*
X179864342Y-58354761D02*
X179959580Y-58307142D01*
X179959580Y-58307142D02*
X180007200Y-58259523D01*
X180007200Y-58259523D02*
X180054819Y-58164285D01*
X180054819Y-58164285D02*
X180054819Y-57973809D01*
X180054819Y-57973809D02*
X180007200Y-57878571D01*
X180007200Y-57878571D02*
X179959580Y-57830952D01*
X179959580Y-57830952D02*
X179864342Y-57783333D01*
X179864342Y-57783333D02*
X179673866Y-57783333D01*
X179673866Y-57783333D02*
X179578628Y-57830952D01*
X179578628Y-57830952D02*
X179531009Y-57878571D01*
X179531009Y-57878571D02*
X179483390Y-57973809D01*
X179531009Y-57021428D02*
X179578628Y-56878571D01*
X179578628Y-56878571D02*
X179626247Y-56830952D01*
X179626247Y-56830952D02*
X179721485Y-56783333D01*
X179721485Y-56783333D02*
X179864342Y-56783333D01*
X179864342Y-56783333D02*
X179959580Y-56830952D01*
X179959580Y-56830952D02*
X180007200Y-56878571D01*
X180007200Y-56878571D02*
X180054819Y-56973809D01*
X180054819Y-56973809D02*
X180054819Y-57354761D01*
X180054819Y-57354761D02*
X179054819Y-57354761D01*
X179054819Y-57354761D02*
X179054819Y-57021428D01*
X179054819Y-57021428D02*
X179102438Y-56926190D01*
X179102438Y-56926190D02*
X179150057Y-56878571D01*
X179150057Y-56878571D02*
X179245295Y-56830952D01*
X179245295Y-56830952D02*
X179340533Y-56830952D01*
X179340533Y-56830952D02*
X179435771Y-56878571D01*
X179435771Y-56878571D02*
X179483390Y-56926190D01*
X179483390Y-56926190D02*
X179531009Y-57021428D01*
X179531009Y-57021428D02*
X179531009Y-57354761D01*
X179673866Y-56354761D02*
X179673866Y-55592857D01*
X179054819Y-55259523D02*
X179054819Y-54688095D01*
X180054819Y-54973809D02*
X179054819Y-54973809D01*
X180007200Y-54402380D02*
X180054819Y-54259523D01*
X180054819Y-54259523D02*
X180054819Y-54021428D01*
X180054819Y-54021428D02*
X180007200Y-53926190D01*
X180007200Y-53926190D02*
X179959580Y-53878571D01*
X179959580Y-53878571D02*
X179864342Y-53830952D01*
X179864342Y-53830952D02*
X179769104Y-53830952D01*
X179769104Y-53830952D02*
X179673866Y-53878571D01*
X179673866Y-53878571D02*
X179626247Y-53926190D01*
X179626247Y-53926190D02*
X179578628Y-54021428D01*
X179578628Y-54021428D02*
X179531009Y-54211904D01*
X179531009Y-54211904D02*
X179483390Y-54307142D01*
X179483390Y-54307142D02*
X179435771Y-54354761D01*
X179435771Y-54354761D02*
X179340533Y-54402380D01*
X179340533Y-54402380D02*
X179245295Y-54402380D01*
X179245295Y-54402380D02*
X179150057Y-54354761D01*
X179150057Y-54354761D02*
X179102438Y-54307142D01*
X179102438Y-54307142D02*
X179054819Y-54211904D01*
X179054819Y-54211904D02*
X179054819Y-53973809D01*
X179054819Y-53973809D02*
X179102438Y-53830952D01*
X180054819Y-52878571D02*
X180054819Y-53449999D01*
X180054819Y-53164285D02*
X179054819Y-53164285D01*
X179054819Y-53164285D02*
X179197676Y-53259523D01*
X179197676Y-53259523D02*
X179292914Y-53354761D01*
X179292914Y-53354761D02*
X179340533Y-53449999D01*
X244284819Y-45958333D02*
X244999104Y-45958333D01*
X244999104Y-45958333D02*
X245141961Y-46005952D01*
X245141961Y-46005952D02*
X245237200Y-46101190D01*
X245237200Y-46101190D02*
X245284819Y-46244047D01*
X245284819Y-46244047D02*
X245284819Y-46339285D01*
X244380057Y-45529761D02*
X244332438Y-45482142D01*
X244332438Y-45482142D02*
X244284819Y-45386904D01*
X244284819Y-45386904D02*
X244284819Y-45148809D01*
X244284819Y-45148809D02*
X244332438Y-45053571D01*
X244332438Y-45053571D02*
X244380057Y-45005952D01*
X244380057Y-45005952D02*
X244475295Y-44958333D01*
X244475295Y-44958333D02*
X244570533Y-44958333D01*
X244570533Y-44958333D02*
X244713390Y-45005952D01*
X244713390Y-45005952D02*
X245284819Y-45577380D01*
X245284819Y-45577380D02*
X245284819Y-44958333D01*
D13*
%TO.C,J1*%
X196010000Y-44295000D02*
X196010000Y-46955000D01*
X218930000Y-44295000D02*
X196010000Y-44295000D01*
X218930000Y-44295000D02*
X218930000Y-46955000D01*
X218930000Y-46955000D02*
X196010000Y-46955000D01*
X221530000Y-45625000D02*
X221530000Y-46955000D01*
X221530000Y-46955000D02*
X220200000Y-46955000D01*
%TO.C,JOYSTICK1*%
X235517000Y-66883000D02*
X235517000Y-67483000D01*
X235517000Y-67483000D02*
X236117000Y-67183000D01*
X236007000Y-64573000D02*
X244427000Y-64573000D01*
X236007000Y-65793000D02*
X236007000Y-64573000D01*
X236007000Y-78573000D02*
X238207000Y-78573000D01*
X236007000Y-79793000D02*
X236007000Y-78573000D01*
X236117000Y-67183000D02*
X235517000Y-66883000D01*
X238207000Y-65793000D02*
X236007000Y-65793000D01*
X238207000Y-65793000D02*
X238207000Y-64573000D01*
X238207000Y-68353000D02*
X238207000Y-68513000D01*
X238207000Y-70853000D02*
X238207000Y-71013000D01*
X238207000Y-73353000D02*
X238207000Y-73513000D01*
X238207000Y-75853000D02*
X238207000Y-76013000D01*
X238207000Y-78573000D02*
X238207000Y-79793000D01*
X239207000Y-65793000D02*
X239207000Y-78573000D01*
X239207000Y-66863000D02*
X242627000Y-66863000D01*
X239207000Y-67183000D02*
X239207000Y-66863000D01*
X239207000Y-67503000D02*
X239207000Y-67183000D01*
X239207000Y-69363000D02*
X242627000Y-69363000D01*
X239207000Y-69683000D02*
X239207000Y-69363000D01*
X239207000Y-70003000D02*
X239207000Y-69683000D01*
X239207000Y-71863000D02*
X242627000Y-71863000D01*
X239207000Y-72183000D02*
X239207000Y-71863000D01*
X239207000Y-72503000D02*
X239207000Y-72183000D01*
X239207000Y-74363000D02*
X242627000Y-74363000D01*
X239207000Y-74683000D02*
X239207000Y-74363000D01*
X239207000Y-75003000D02*
X239207000Y-74683000D01*
X239207000Y-76863000D02*
X242627000Y-76863000D01*
X239207000Y-77183000D02*
X239207000Y-76863000D01*
X239207000Y-77503000D02*
X239207000Y-77183000D01*
X242627000Y-66863000D02*
X242707000Y-67183000D01*
X242627000Y-67503000D02*
X239207000Y-67503000D01*
X242627000Y-69363000D02*
X242707000Y-69683000D01*
X242627000Y-70003000D02*
X239207000Y-70003000D01*
X242627000Y-71863000D02*
X242707000Y-72183000D01*
X242627000Y-72503000D02*
X239207000Y-72503000D01*
X242627000Y-74363000D02*
X242707000Y-74683000D01*
X242627000Y-75003000D02*
X239207000Y-75003000D01*
X242627000Y-76863000D02*
X242707000Y-77183000D01*
X242627000Y-77503000D02*
X239207000Y-77503000D01*
X242707000Y-67183000D02*
X242627000Y-67503000D01*
X242707000Y-69683000D02*
X242627000Y-70003000D01*
X242707000Y-72183000D02*
X242627000Y-72503000D01*
X242707000Y-74683000D02*
X242627000Y-75003000D01*
X242707000Y-77183000D02*
X242627000Y-77503000D01*
X243207000Y-64573000D02*
X243207000Y-65793000D01*
X243207000Y-65793000D02*
X238207000Y-65793000D01*
X243207000Y-78573000D02*
X238207000Y-78573000D01*
X243207000Y-79793000D02*
X243207000Y-78573000D01*
X244427000Y-64573000D02*
X244427000Y-79793000D01*
X244427000Y-79793000D02*
X236007000Y-79793000D01*
%TO.C,J5*%
X228145000Y-92570000D02*
X229475000Y-92570000D01*
X228145000Y-93900000D02*
X228145000Y-92570000D01*
X230745000Y-92570000D02*
X243505000Y-92570000D01*
X230745000Y-95230000D02*
X230745000Y-92570000D01*
X230745000Y-95230000D02*
X243505000Y-95230000D01*
X243505000Y-95230000D02*
X243505000Y-92570000D01*
%TO.C,J4*%
X205195000Y-92545000D02*
X206525000Y-92545000D01*
X205195000Y-93875000D02*
X205195000Y-92545000D01*
X207795000Y-92545000D02*
X225635000Y-92545000D01*
X207795000Y-95205000D02*
X207795000Y-92545000D01*
X207795000Y-95205000D02*
X225635000Y-95205000D01*
X225635000Y-95205000D02*
X225635000Y-92545000D01*
%TO.C,LSM9DS1*%
X181048000Y-79391000D02*
X181048000Y-80641000D01*
X181048000Y-80641000D02*
X182298000Y-80641000D01*
X181348000Y-67621000D02*
X181348000Y-71281000D01*
X181348000Y-71281000D02*
X182348000Y-71281000D01*
X181348000Y-76681000D02*
X181348000Y-80341000D01*
X181348000Y-80341000D02*
X187968000Y-80341000D01*
X181748000Y-73181000D02*
X181748000Y-74781000D01*
X181748000Y-74781000D02*
X182348000Y-74781000D01*
X182348000Y-71281000D02*
X182348000Y-73181000D01*
X182348000Y-73181000D02*
X181748000Y-73181000D01*
X182348000Y-74781000D02*
X182348000Y-76681000D01*
X182348000Y-76681000D02*
X181348000Y-76681000D01*
X182958000Y-68631000D02*
X182958000Y-79331000D01*
X182958000Y-79331000D02*
X187258000Y-79331000D01*
X184658000Y-67621000D02*
X184658000Y-68631000D01*
X184658000Y-80341000D02*
X184658000Y-79331000D01*
X187258000Y-68631000D02*
X182958000Y-68631000D01*
X187258000Y-79331000D02*
X187258000Y-68631000D01*
X187968000Y-67621000D02*
X181348000Y-67621000D01*
X187968000Y-80341000D02*
X187968000Y-67621000D01*
%TO.C,AS5048B-TS1*%
X180390000Y-63360000D02*
X180390000Y-64610000D01*
X180390000Y-64610000D02*
X181640000Y-64610000D01*
X180690000Y-51590000D02*
X180690000Y-55250000D01*
X180690000Y-55250000D02*
X181690000Y-55250000D01*
X180690000Y-60650000D02*
X180690000Y-64310000D01*
X180690000Y-64310000D02*
X187310000Y-64310000D01*
X181090000Y-57150000D02*
X181090000Y-58750000D01*
X181090000Y-58750000D02*
X181690000Y-58750000D01*
X181690000Y-55250000D02*
X181690000Y-57150000D01*
X181690000Y-57150000D02*
X181090000Y-57150000D01*
X181690000Y-58750000D02*
X181690000Y-60650000D01*
X181690000Y-60650000D02*
X180690000Y-60650000D01*
X182300000Y-52600000D02*
X182300000Y-63300000D01*
X182300000Y-63300000D02*
X186600000Y-63300000D01*
X184000000Y-51590000D02*
X184000000Y-52600000D01*
X184000000Y-64310000D02*
X184000000Y-63300000D01*
X186600000Y-52600000D02*
X182300000Y-52600000D01*
X186600000Y-63300000D02*
X186600000Y-52600000D01*
X187310000Y-51590000D02*
X180690000Y-51590000D01*
X187310000Y-64310000D02*
X187310000Y-51590000D01*
%TO.C,J2*%
X222950000Y-44295000D02*
X222950000Y-46955000D01*
X240790000Y-44295000D02*
X222950000Y-44295000D01*
X240790000Y-44295000D02*
X240790000Y-46955000D01*
X240790000Y-46955000D02*
X222950000Y-46955000D01*
X243390000Y-45625000D02*
X243390000Y-46955000D01*
X243390000Y-46955000D02*
X242060000Y-46955000D01*
%TD*%
M02*
