%TF.GenerationSoftware,KiCad,Pcbnew,8.0.7*%
%TF.CreationDate,2025-05-16T10:15:14+02:00*%
%TF.ProjectId,PROJETPCB,50524f4a-4554-4504-9342-2e6b69636164,rev?*%
%TF.SameCoordinates,Original*%
%TF.FileFunction,Copper,L1,Top*%
%TF.FilePolarity,Positive*%
%FSLAX46Y46*%
G04 Gerber Fmt 4.6, Leading zero omitted, Abs format (unit mm)*
G04 Created by KiCad (PCBNEW 8.0.7) date 2025-05-16 10:15:14*
%MOMM*%
%LPD*%
G01*
G04 APERTURE LIST*
G04 Aperture macros list*
%AMRoundRect*
0 Rectangle with rounded corners*
0 $1 Rounding radius*
0 $2 $3 $4 $5 $6 $7 $8 $9 X,Y pos of 4 corners*
0 Add a 4 corners polygon primitive as box body*
4,1,4,$2,$3,$4,$5,$6,$7,$8,$9,$2,$3,0*
0 Add four circle primitives for the rounded corners*
1,1,$1+$1,$2,$3*
1,1,$1+$1,$4,$5*
1,1,$1+$1,$6,$7*
1,1,$1+$1,$8,$9*
0 Add four rect primitives between the rounded corners*
20,1,$1+$1,$2,$3,$4,$5,0*
20,1,$1+$1,$4,$5,$6,$7,0*
20,1,$1+$1,$6,$7,$8,$9,0*
20,1,$1+$1,$8,$9,$2,$3,0*%
G04 Aperture macros list end*
%TA.AperFunction,ComponentPad*%
%ADD10R,1.700000X1.700000*%
%TD*%
%TA.AperFunction,ComponentPad*%
%ADD11O,1.700000X1.700000*%
%TD*%
%TA.AperFunction,ComponentPad*%
%ADD12RoundRect,0.250000X-0.725000X0.600000X-0.725000X-0.600000X0.725000X-0.600000X0.725000X0.600000X0*%
%TD*%
%TA.AperFunction,ComponentPad*%
%ADD13O,1.950000X1.700000*%
%TD*%
%TA.AperFunction,ComponentPad*%
%ADD14RoundRect,0.250000X0.725000X-0.600000X0.725000X0.600000X-0.725000X0.600000X-0.725000X-0.600000X0*%
%TD*%
%TA.AperFunction,ViaPad*%
%ADD15C,1.200000*%
%TD*%
%TA.AperFunction,ViaPad*%
%ADD16C,1.219200*%
%TD*%
%TA.AperFunction,ViaPad*%
%ADD17C,0.600000*%
%TD*%
%TA.AperFunction,Conductor*%
%ADD18C,0.500000*%
%TD*%
%TA.AperFunction,Conductor*%
%ADD19C,0.600000*%
%TD*%
%TA.AperFunction,Conductor*%
%ADD20C,0.254000*%
%TD*%
G04 APERTURE END LIST*
D10*
%TO.P,J1,1,Pin_1*%
%TO.N,IO8*%
X220200000Y-45625000D03*
D11*
%TO.P,J1,2,Pin_2*%
%TO.N,IO9*%
X217660000Y-45625000D03*
%TO.P,J1,3,Pin_3*%
%TO.N,SS*%
X215120000Y-45625000D03*
%TO.P,J1,4,Pin_4*%
%TO.N,MOSI*%
X212580000Y-45625000D03*
%TO.P,J1,5,Pin_5*%
%TO.N,MISO*%
X210040000Y-45625000D03*
%TO.P,J1,6,Pin_6*%
%TO.N,SCK*%
X207500000Y-45625000D03*
%TO.P,J1,7,Pin_7*%
%TO.N,GND*%
X204960000Y-45625000D03*
%TO.P,J1,8,Pin_8*%
%TO.N,AREF*%
X202420000Y-45625000D03*
%TO.P,J1,9,Pin_9*%
%TO.N,AD4{slash}SDA*%
X199880000Y-45625000D03*
%TO.P,J1,10,Pin_10*%
%TO.N,AD5{slash}SCL*%
X197340000Y-45625000D03*
%TD*%
D12*
%TO.P,JOYSTICK1,1,Pin_1*%
%TO.N,GND*%
X237617000Y-67183000D03*
D13*
%TO.P,JOYSTICK1,2,Pin_2*%
%TO.N,+5V*%
X237617000Y-69683000D03*
%TO.P,JOYSTICK1,3,Pin_3*%
%TO.N,AD0*%
X237617000Y-72183000D03*
%TO.P,JOYSTICK1,4,Pin_4*%
%TO.N,AD1*%
X237617000Y-74683000D03*
%TO.P,JOYSTICK1,5,Pin_5*%
%TO.N,IO2*%
X237617000Y-77183000D03*
%TD*%
D10*
%TO.P,J5,1,Pin_1*%
%TO.N,AD0*%
X229475000Y-93900000D03*
D11*
%TO.P,J5,2,Pin_2*%
%TO.N,AD1*%
X232015000Y-93900000D03*
%TO.P,J5,3,Pin_3*%
%TO.N,AD2*%
X234555000Y-93900000D03*
%TO.P,J5,4,Pin_4*%
%TO.N,AD3*%
X237095000Y-93900000D03*
%TO.P,J5,5,Pin_5*%
%TO.N,AD4*%
X239635000Y-93900000D03*
%TO.P,J5,6,Pin_6*%
%TO.N,AD5*%
X242175000Y-93900000D03*
%TD*%
D10*
%TO.P,J4,1,Pin_1*%
%TO.N,unconnected-(J4-Pin_1-Pad1)*%
X206525000Y-93875000D03*
D11*
%TO.P,J4,2,Pin_2*%
%TO.N,+5V*%
X209065000Y-93875000D03*
%TO.P,J4,3,Pin_3*%
%TO.N,RESET*%
X211605000Y-93875000D03*
%TO.P,J4,4,Pin_4*%
%TO.N,+3.3V*%
X214145000Y-93875000D03*
%TO.P,J4,5,Pin_5*%
%TO.N,+5V*%
X216685000Y-93875000D03*
%TO.P,J4,6,Pin_6*%
%TO.N,GND*%
X219225000Y-93875000D03*
%TO.P,J4,7,Pin_7*%
X221765000Y-93875000D03*
%TO.P,J4,8,Pin_8*%
%TO.N,VCC*%
X224305000Y-93875000D03*
%TD*%
D14*
%TO.P,LSM9DS1,1,Pin_1*%
%TO.N,GND*%
X184658000Y-77731000D03*
D13*
%TO.P,LSM9DS1,2,Pin_2*%
%TO.N,+3.3V*%
X184658000Y-75231000D03*
%TO.P,LSM9DS1,3,Pin_3*%
%TO.N,AD4{slash}SDA*%
X184658000Y-72731000D03*
%TO.P,LSM9DS1,4,Pin_4*%
%TO.N,AD5{slash}SCL*%
X184658000Y-70231000D03*
%TD*%
D14*
%TO.P,AS5048B-TS1,1,Pin_1*%
%TO.N,+3.3V*%
X184000000Y-61700000D03*
D13*
%TO.P,AS5048B-TS1,2,Pin_2*%
%TO.N,AD4{slash}SDA*%
X184000000Y-59200000D03*
%TO.P,AS5048B-TS1,3,Pin_3*%
%TO.N,AD5{slash}SCL*%
X184000000Y-56700000D03*
%TO.P,AS5048B-TS1,4,Pin_4*%
%TO.N,GND*%
X184000000Y-54200000D03*
%TD*%
D10*
%TO.P,J2,1,Pin_1*%
%TO.N,IO0*%
X242060000Y-45625000D03*
D11*
%TO.P,J2,2,Pin_2*%
%TO.N,IO1*%
X239520000Y-45625000D03*
%TO.P,J2,3,Pin_3*%
%TO.N,IO2*%
X236980000Y-45625000D03*
%TO.P,J2,4,Pin_4*%
%TO.N,IO3*%
X234440000Y-45625000D03*
%TO.P,J2,5,Pin_5*%
%TO.N,IO4*%
X231900000Y-45625000D03*
%TO.P,J2,6,Pin_6*%
%TO.N,IO5*%
X229360000Y-45625000D03*
%TO.P,J2,7,Pin_7*%
%TO.N,IO6*%
X226820000Y-45625000D03*
%TO.P,J2,8,Pin_8*%
%TO.N,IO7*%
X224280000Y-45625000D03*
%TD*%
D15*
%TO.N,+5V*%
X215900000Y-82550000D03*
D16*
%TO.N,GND*%
X181483000Y-82169000D03*
X185039000Y-82931000D03*
X182219600Y-48412400D03*
X242824000Y-81661000D03*
X232791000Y-63627000D03*
X238125000Y-81661000D03*
X188595000Y-82042000D03*
X206629000Y-48895000D03*
X182372000Y-65532000D03*
X231648000Y-66929000D03*
X188899800Y-50088800D03*
X242570000Y-50165000D03*
X184683400Y-48666400D03*
X203454000Y-48895000D03*
X222250000Y-89916000D03*
X235712000Y-62611000D03*
X191389000Y-78486000D03*
X219710000Y-90424000D03*
D17*
%TO.N,AD5{slash}SCL*%
X191960500Y-45656500D03*
X190500000Y-63500000D03*
%TD*%
D18*
%TO.N,IO2*%
X239522000Y-48167000D02*
X236980000Y-45625000D01*
X241300000Y-50927000D02*
X239522000Y-49149000D01*
X241300000Y-73500000D02*
X241300000Y-50927000D01*
X237617000Y-77183000D02*
X241300000Y-73500000D01*
X239522000Y-49149000D02*
X239522000Y-48167000D01*
D19*
%TO.N,+3.3V*%
X182118000Y-88900000D02*
X209170000Y-88900000D01*
X180173400Y-86955400D02*
X182118000Y-88900000D01*
X209170000Y-88900000D02*
X214145000Y-93875000D01*
X180340000Y-81459945D02*
X180173400Y-81626545D01*
X184000000Y-61700000D02*
X180340000Y-65360000D01*
X180340000Y-65360000D02*
X180340000Y-81459945D01*
X180173400Y-81626545D02*
X180173400Y-86955400D01*
D18*
%TO.N,AD0*%
X231115000Y-92260000D02*
X229475000Y-93900000D01*
X231115000Y-78685000D02*
X231115000Y-92260000D01*
X237617000Y-72183000D02*
X231115000Y-78685000D01*
%TO.N,AD4{slash}SDA*%
X198840000Y-46246321D02*
X198840000Y-45625000D01*
X197961321Y-47125000D02*
X198840000Y-46246321D01*
X196912500Y-47125000D02*
X197961321Y-47125000D01*
X184837500Y-59200000D02*
X196912500Y-47125000D01*
X184000000Y-59200000D02*
X184837500Y-59200000D01*
X198840000Y-45625000D02*
X199880000Y-45625000D01*
%TO.N,AD1*%
X232015000Y-79410000D02*
X232015000Y-93900000D01*
X236742000Y-74683000D02*
X232015000Y-79410000D01*
D19*
%TO.N,+5V*%
X215900000Y-82550000D02*
X218125000Y-82550000D01*
X220325000Y-86975000D02*
X216685000Y-90615000D01*
X218125000Y-82550000D02*
X220325000Y-84750000D01*
X220325000Y-84750000D02*
X220325000Y-86975000D01*
X223500000Y-83800000D02*
X220325000Y-86975000D01*
X237617000Y-69683000D02*
X223500000Y-83800000D01*
D18*
%TO.N,AD4{slash}SDA*%
X199880000Y-64625000D02*
X199880000Y-45625000D01*
X184300000Y-73350000D02*
X191191000Y-73350000D01*
X199898000Y-64643000D02*
X199880000Y-64625000D01*
X191191000Y-73350000D02*
X199898000Y-64643000D01*
D19*
%TO.N,AD5{slash}SCL*%
X184000000Y-56700000D02*
X185175000Y-56700000D01*
X191992000Y-45625000D02*
X197340000Y-45625000D01*
X185175000Y-56700000D02*
X190500000Y-51375000D01*
X195675000Y-45625000D02*
X190500000Y-50800000D01*
X184300000Y-69700000D02*
X190500000Y-63500000D01*
X191960500Y-45656500D02*
X191992000Y-45625000D01*
X190500000Y-50800000D02*
X190500000Y-51375000D01*
X184300000Y-70850000D02*
X184300000Y-69700000D01*
X197340000Y-45625000D02*
X195675000Y-45625000D01*
%TO.N,+3.3V*%
X184919000Y-75231000D02*
X195501000Y-75231000D01*
X195501000Y-75231000D02*
X214145000Y-93875000D01*
X184300000Y-75850000D02*
X184919000Y-75231000D01*
%TO.N,+5V*%
X216685000Y-90615000D02*
X216685000Y-93875000D01*
D20*
%TO.N,AD0*%
X229070599Y-93595267D02*
X229413399Y-93938067D01*
%TO.N,AD1*%
X231953399Y-93938067D02*
X231585199Y-93569867D01*
%TO.N,AD2*%
X234493399Y-93938067D02*
X234125199Y-93569867D01*
%TO.N,AD3*%
X237033399Y-93938067D02*
X236690599Y-93595267D01*
%TO.N,AD4*%
X239255999Y-93620667D02*
X239573399Y-93938067D01*
%TO.N,AD5*%
X241745199Y-93569867D02*
X242113399Y-93938067D01*
%TD*%
%TA.AperFunction,Conductor*%
%TO.N,GND*%
G36*
X221299075Y-93682007D02*
G01*
X221265000Y-93809174D01*
X221265000Y-93940826D01*
X221299075Y-94067993D01*
X221331988Y-94125000D01*
X219658012Y-94125000D01*
X219690925Y-94067993D01*
X219725000Y-93940826D01*
X219725000Y-93809174D01*
X219690925Y-93682007D01*
X219658012Y-93625000D01*
X221331988Y-93625000D01*
X221299075Y-93682007D01*
G37*
%TD.AperFunction*%
%TA.AperFunction,Conductor*%
G36*
X199148833Y-46959947D02*
G01*
X199204767Y-47001818D01*
X199229184Y-47067283D01*
X199229500Y-47076129D01*
X199229500Y-64340192D01*
X199209815Y-64407231D01*
X199193181Y-64427873D01*
X190957873Y-72663181D01*
X190896550Y-72696666D01*
X190870192Y-72699500D01*
X186150005Y-72699500D01*
X186082966Y-72679815D01*
X186037211Y-72627011D01*
X186027532Y-72594898D01*
X186002709Y-72438173D01*
X185951775Y-72281417D01*
X185941884Y-72250975D01*
X185941882Y-72250972D01*
X185941882Y-72250970D01*
X185894743Y-72158455D01*
X185852524Y-72075595D01*
X185736828Y-71916354D01*
X185597646Y-71777172D01*
X185438405Y-71661476D01*
X185301038Y-71591484D01*
X185250243Y-71543511D01*
X185233448Y-71475690D01*
X185255985Y-71409555D01*
X185301039Y-71370515D01*
X185305286Y-71368351D01*
X185438405Y-71300524D01*
X185597646Y-71184828D01*
X185736828Y-71045646D01*
X185852524Y-70886405D01*
X185941884Y-70711025D01*
X186002709Y-70523826D01*
X186006855Y-70497647D01*
X186033500Y-70329422D01*
X186033500Y-70132577D01*
X186002709Y-69938173D01*
X185941882Y-69750970D01*
X185894743Y-69658455D01*
X185852524Y-69575595D01*
X185736828Y-69416354D01*
X185736826Y-69416352D01*
X185736819Y-69416342D01*
X185736395Y-69415846D01*
X185736293Y-69415618D01*
X185733964Y-69412413D01*
X185734637Y-69411923D01*
X185707831Y-69352082D01*
X185718274Y-69282998D01*
X185743009Y-69247646D01*
X190977731Y-64012924D01*
X190983151Y-64007822D01*
X191028183Y-63967929D01*
X191033932Y-63959598D01*
X191040639Y-63951586D01*
X191040242Y-63951261D01*
X191044105Y-63946551D01*
X191044114Y-63946543D01*
X191079081Y-63894208D01*
X191079929Y-63892960D01*
X191124818Y-63827930D01*
X191150587Y-63759978D01*
X191151926Y-63756601D01*
X191173580Y-63704328D01*
X191173646Y-63703996D01*
X191179321Y-63684211D01*
X191185140Y-63668872D01*
X191191637Y-63615358D01*
X191193116Y-63606110D01*
X191200500Y-63568993D01*
X191200500Y-63549873D01*
X191201404Y-63534926D01*
X191205645Y-63500000D01*
X191201404Y-63465071D01*
X191200500Y-63450125D01*
X191200500Y-63431006D01*
X191193113Y-63393873D01*
X191191637Y-63384640D01*
X191185140Y-63331130D01*
X191185140Y-63331129D01*
X191179323Y-63315792D01*
X191173644Y-63295997D01*
X191173580Y-63295672D01*
X191151942Y-63243436D01*
X191150576Y-63239991D01*
X191124818Y-63172070D01*
X191080015Y-63107162D01*
X191078963Y-63105612D01*
X191044115Y-63053458D01*
X191040245Y-63048742D01*
X191040624Y-63048430D01*
X191033936Y-63040405D01*
X191028185Y-63032073D01*
X191028183Y-63032071D01*
X190983152Y-62992177D01*
X190977715Y-62987058D01*
X190946549Y-62955891D01*
X190946545Y-62955888D01*
X190946544Y-62955887D01*
X190946543Y-62955886D01*
X190935835Y-62948731D01*
X190922505Y-62938448D01*
X190900856Y-62919269D01*
X190900847Y-62919263D01*
X190864163Y-62900008D01*
X190852908Y-62893320D01*
X190831809Y-62879223D01*
X190831806Y-62879222D01*
X190802617Y-62867132D01*
X190792445Y-62862368D01*
X190750226Y-62840210D01*
X190728206Y-62834783D01*
X190710431Y-62828948D01*
X190704328Y-62826420D01*
X190704326Y-62826419D01*
X190704325Y-62826419D01*
X190704324Y-62826418D01*
X190654986Y-62816604D01*
X190649506Y-62815384D01*
X190585058Y-62799500D01*
X190585056Y-62799500D01*
X190414944Y-62799500D01*
X190414941Y-62799500D01*
X190350501Y-62815382D01*
X190345023Y-62816602D01*
X190295671Y-62826420D01*
X190289565Y-62828949D01*
X190271797Y-62834781D01*
X190249775Y-62840209D01*
X190207561Y-62862365D01*
X190197393Y-62867127D01*
X190168192Y-62879223D01*
X190168186Y-62879226D01*
X190147090Y-62893321D01*
X190135834Y-62900010D01*
X190099149Y-62919264D01*
X190077493Y-62938450D01*
X190064165Y-62948730D01*
X190053462Y-62955882D01*
X190053456Y-62955887D01*
X190022279Y-62987062D01*
X190016830Y-62992190D01*
X189971820Y-63032067D01*
X189971818Y-63032069D01*
X189966056Y-63040416D01*
X189951693Y-63057648D01*
X183775783Y-69233558D01*
X183760990Y-69246194D01*
X183718353Y-69277173D01*
X183579171Y-69416355D01*
X183463476Y-69575594D01*
X183374117Y-69750970D01*
X183313290Y-69938173D01*
X183282500Y-70132577D01*
X183282500Y-70329422D01*
X183313290Y-70523826D01*
X183374117Y-70711029D01*
X183450814Y-70861555D01*
X183463476Y-70886405D01*
X183579172Y-71045646D01*
X183579174Y-71045648D01*
X183636248Y-71102722D01*
X183663128Y-71142950D01*
X183679223Y-71181807D01*
X183679228Y-71181817D01*
X183755885Y-71296541D01*
X183755888Y-71296545D01*
X183853457Y-71394114D01*
X183915010Y-71435242D01*
X183959815Y-71488854D01*
X183968522Y-71558179D01*
X183938368Y-71621206D01*
X183902418Y-71648827D01*
X183877595Y-71661475D01*
X183774652Y-71736268D01*
X183718354Y-71777172D01*
X183718352Y-71777174D01*
X183718351Y-71777174D01*
X183579174Y-71916351D01*
X183579174Y-71916352D01*
X183579172Y-71916354D01*
X183529485Y-71984741D01*
X183463476Y-72075594D01*
X183374117Y-72250970D01*
X183313290Y-72438173D01*
X183282500Y-72632577D01*
X183282500Y-72829422D01*
X183313290Y-73023826D01*
X183374117Y-73211029D01*
X183450814Y-73361555D01*
X183463476Y-73386405D01*
X183579172Y-73545646D01*
X183718354Y-73684828D01*
X183745182Y-73704319D01*
X183775397Y-73735745D01*
X183794723Y-73764668D01*
X183794728Y-73764674D01*
X183885328Y-73855274D01*
X183885331Y-73855276D01*
X183966072Y-73909225D01*
X184010877Y-73962836D01*
X184019584Y-74032161D01*
X183989430Y-74095189D01*
X183953477Y-74122811D01*
X183877597Y-74161474D01*
X183820484Y-74202970D01*
X183718354Y-74277172D01*
X183718352Y-74277174D01*
X183718351Y-74277174D01*
X183579174Y-74416351D01*
X183579174Y-74416352D01*
X183579172Y-74416354D01*
X183533376Y-74479386D01*
X183463476Y-74575594D01*
X183374117Y-74750970D01*
X183313290Y-74938173D01*
X183282500Y-75132577D01*
X183282500Y-75329422D01*
X183313290Y-75523826D01*
X183374117Y-75711029D01*
X183455367Y-75870490D01*
X183463476Y-75886405D01*
X183579172Y-76045646D01*
X183579174Y-76045648D01*
X183636248Y-76102722D01*
X183663128Y-76142950D01*
X183679224Y-76181809D01*
X183721797Y-76245525D01*
X183742674Y-76312203D01*
X183724189Y-76379583D01*
X183672210Y-76426272D01*
X183657700Y-76432120D01*
X183613884Y-76446639D01*
X183613875Y-76446643D01*
X183464654Y-76538684D01*
X183340684Y-76662654D01*
X183248643Y-76811875D01*
X183248641Y-76811880D01*
X183193494Y-76978302D01*
X183193493Y-76978309D01*
X183183000Y-77081013D01*
X183183000Y-77481000D01*
X184253854Y-77481000D01*
X184215370Y-77547657D01*
X184183000Y-77668465D01*
X184183000Y-77793535D01*
X184215370Y-77914343D01*
X184253854Y-77981000D01*
X183183001Y-77981000D01*
X183183001Y-78380986D01*
X183193494Y-78483697D01*
X183248641Y-78650119D01*
X183248643Y-78650124D01*
X183340684Y-78799345D01*
X183464654Y-78923315D01*
X183613875Y-79015356D01*
X183613880Y-79015358D01*
X183780302Y-79070505D01*
X183780309Y-79070506D01*
X183883019Y-79080999D01*
X184407999Y-79080999D01*
X184408000Y-79080998D01*
X184408000Y-78135145D01*
X184474657Y-78173630D01*
X184595465Y-78206000D01*
X184720535Y-78206000D01*
X184841343Y-78173630D01*
X184908000Y-78135145D01*
X184908000Y-79080999D01*
X185432972Y-79080999D01*
X185432986Y-79080998D01*
X185535697Y-79070505D01*
X185702119Y-79015358D01*
X185702124Y-79015356D01*
X185851345Y-78923315D01*
X185975315Y-78799345D01*
X186067356Y-78650124D01*
X186067358Y-78650119D01*
X186122505Y-78483697D01*
X186122506Y-78483690D01*
X186132999Y-78380986D01*
X186133000Y-78380973D01*
X186133000Y-77981000D01*
X185062146Y-77981000D01*
X185100630Y-77914343D01*
X185133000Y-77793535D01*
X185133000Y-77668465D01*
X185100630Y-77547657D01*
X185062146Y-77481000D01*
X186132999Y-77481000D01*
X186132999Y-77081028D01*
X186132998Y-77081013D01*
X186122505Y-76978302D01*
X186067358Y-76811880D01*
X186067356Y-76811875D01*
X185975315Y-76662654D01*
X185851345Y-76538684D01*
X185702124Y-76446643D01*
X185702119Y-76446641D01*
X185612246Y-76416860D01*
X185554801Y-76377087D01*
X185527978Y-76312571D01*
X185540293Y-76243795D01*
X185578364Y-76198837D01*
X185597646Y-76184828D01*
X185736828Y-76045646D01*
X185782624Y-75982613D01*
X185837953Y-75939949D01*
X185882941Y-75931500D01*
X195159481Y-75931500D01*
X195226520Y-75951185D01*
X195247162Y-75967819D01*
X207267162Y-87987819D01*
X207300647Y-88049142D01*
X207295663Y-88118834D01*
X207253791Y-88174767D01*
X207188327Y-88199184D01*
X207179481Y-88199500D01*
X182459519Y-88199500D01*
X182392480Y-88179815D01*
X182371838Y-88163181D01*
X180910219Y-86701562D01*
X180876734Y-86640239D01*
X180873900Y-86613881D01*
X180873900Y-81959389D01*
X180893585Y-81892350D01*
X180894798Y-81890498D01*
X180904204Y-81876421D01*
X180960775Y-81791756D01*
X181013580Y-81664273D01*
X181034808Y-81557554D01*
X181040500Y-81528941D01*
X181040500Y-65701519D01*
X181060185Y-65634480D01*
X181076819Y-65613838D01*
X183703838Y-62986819D01*
X183765161Y-62953334D01*
X183791519Y-62950500D01*
X184790686Y-62950500D01*
X184790694Y-62950500D01*
X184827569Y-62947598D01*
X184827571Y-62947597D01*
X184827573Y-62947597D01*
X184869191Y-62935505D01*
X184985398Y-62901744D01*
X185126865Y-62818081D01*
X185243081Y-62701865D01*
X185326744Y-62560398D01*
X185372598Y-62402569D01*
X185375500Y-62365694D01*
X185375500Y-61034306D01*
X185372598Y-60997431D01*
X185349540Y-60918067D01*
X185326745Y-60839606D01*
X185326744Y-60839603D01*
X185326744Y-60839602D01*
X185243081Y-60698135D01*
X185243079Y-60698133D01*
X185243076Y-60698129D01*
X185126870Y-60581923D01*
X185126862Y-60581917D01*
X184985396Y-60498255D01*
X184985395Y-60498254D01*
X184857132Y-60460990D01*
X184798247Y-60423383D01*
X184769041Y-60359911D01*
X184778787Y-60290724D01*
X184818840Y-60241598D01*
X184939646Y-60153828D01*
X185078828Y-60014646D01*
X185194524Y-59855405D01*
X185281684Y-59684343D01*
X185304485Y-59652959D01*
X197145627Y-47811819D01*
X197206950Y-47778334D01*
X197233308Y-47775500D01*
X198025392Y-47775500D01*
X198109936Y-47758682D01*
X198151065Y-47750501D01*
X198269448Y-47701465D01*
X198375990Y-47630277D01*
X199017819Y-46988448D01*
X199079142Y-46954963D01*
X199148833Y-46959947D01*
G37*
%TD.AperFunction*%
%TA.AperFunction,Conductor*%
G36*
X242937862Y-43658252D02*
G01*
X242958504Y-43674886D01*
X244116680Y-44833062D01*
X244150165Y-44894385D01*
X244152999Y-44920743D01*
X244152999Y-56157958D01*
X244187107Y-56285254D01*
X244220053Y-56342317D01*
X244252999Y-56399381D01*
X244253001Y-56399383D01*
X246656680Y-58803062D01*
X246690165Y-58864385D01*
X246692999Y-58890743D01*
X246692999Y-59779629D01*
X246673314Y-59846668D01*
X246620510Y-59892423D01*
X246551352Y-59902367D01*
X246487796Y-59873342D01*
X246458902Y-59836679D01*
X246452400Y-59824131D01*
X246286686Y-59589366D01*
X246196523Y-59492826D01*
X246090552Y-59379359D01*
X245867646Y-59198012D01*
X245867645Y-59198011D01*
X245622116Y-59048701D01*
X245358562Y-58934225D01*
X245358560Y-58934224D01*
X245358557Y-58934223D01*
X245229077Y-58897944D01*
X245081863Y-58856697D01*
X245081858Y-58856696D01*
X245081857Y-58856696D01*
X244939517Y-58837131D01*
X244797178Y-58817567D01*
X244797177Y-58817567D01*
X244509821Y-58817567D01*
X244509820Y-58817567D01*
X244225141Y-58856696D01*
X244225134Y-58856697D01*
X244044981Y-58907174D01*
X243948441Y-58934223D01*
X243948438Y-58934223D01*
X243948435Y-58934225D01*
X243948434Y-58934225D01*
X243684881Y-59048701D01*
X243439352Y-59198011D01*
X243216449Y-59379356D01*
X243020311Y-59589366D01*
X242854597Y-59824131D01*
X242722393Y-60079273D01*
X242626166Y-60350029D01*
X242626165Y-60350032D01*
X242567700Y-60631386D01*
X242548091Y-60918067D01*
X242567700Y-61204747D01*
X242626165Y-61486101D01*
X242626166Y-61486104D01*
X242722393Y-61756860D01*
X242722392Y-61756860D01*
X242854597Y-62012002D01*
X243020311Y-62246767D01*
X243105422Y-62337898D01*
X243216446Y-62456775D01*
X243439352Y-62638122D01*
X243544172Y-62701865D01*
X243684881Y-62787432D01*
X243863412Y-62864978D01*
X243948441Y-62901911D01*
X244225141Y-62979438D01*
X244475419Y-63013838D01*
X244509820Y-63018567D01*
X244509821Y-63018567D01*
X244797178Y-63018567D01*
X244827869Y-63014348D01*
X245081857Y-62979438D01*
X245358557Y-62901911D01*
X245471514Y-62852846D01*
X245622116Y-62787432D01*
X245622119Y-62787430D01*
X245622124Y-62787428D01*
X245867646Y-62638122D01*
X246090552Y-62456775D01*
X246286688Y-62246765D01*
X246452400Y-62012003D01*
X246458901Y-61999457D01*
X246507221Y-61948989D01*
X246575155Y-61932657D01*
X246641134Y-61955645D01*
X246684211Y-62010656D01*
X246692999Y-62056504D01*
X246692999Y-87719629D01*
X246673314Y-87786668D01*
X246620510Y-87832423D01*
X246551352Y-87842367D01*
X246487796Y-87813342D01*
X246458902Y-87776679D01*
X246452400Y-87764131D01*
X246286686Y-87529366D01*
X246167680Y-87401943D01*
X246090552Y-87319359D01*
X245867646Y-87138012D01*
X245867645Y-87138011D01*
X245622116Y-86988701D01*
X245358562Y-86874225D01*
X245358560Y-86874224D01*
X245358557Y-86874223D01*
X245229077Y-86837944D01*
X245081863Y-86796697D01*
X245081858Y-86796696D01*
X245081857Y-86796696D01*
X244939517Y-86777131D01*
X244797178Y-86757567D01*
X244797177Y-86757567D01*
X244509821Y-86757567D01*
X244509820Y-86757567D01*
X244225141Y-86796696D01*
X244225134Y-86796697D01*
X244017360Y-86854912D01*
X243948441Y-86874223D01*
X243948438Y-86874223D01*
X243948435Y-86874225D01*
X243948434Y-86874225D01*
X243684881Y-86988701D01*
X243439352Y-87138011D01*
X243216449Y-87319356D01*
X243020311Y-87529366D01*
X242854597Y-87764131D01*
X242722393Y-88019273D01*
X242626166Y-88290029D01*
X242626165Y-88290032D01*
X242567700Y-88571386D01*
X242548091Y-88858067D01*
X242567700Y-89144747D01*
X242626165Y-89426101D01*
X242626166Y-89426104D01*
X242722393Y-89696860D01*
X242722392Y-89696860D01*
X242854597Y-89952002D01*
X243020311Y-90186767D01*
X243105422Y-90277898D01*
X243216446Y-90396775D01*
X243233522Y-90410667D01*
X243439352Y-90578122D01*
X243684881Y-90727432D01*
X243871736Y-90808593D01*
X243948441Y-90841911D01*
X244225141Y-90919438D01*
X244475419Y-90953838D01*
X244509820Y-90958567D01*
X244509821Y-90958567D01*
X244797178Y-90958567D01*
X244827869Y-90954348D01*
X245081857Y-90919438D01*
X245358557Y-90841911D01*
X245471514Y-90792846D01*
X245622116Y-90727432D01*
X245622119Y-90727430D01*
X245622124Y-90727428D01*
X245867646Y-90578122D01*
X246090552Y-90396775D01*
X246286688Y-90186765D01*
X246452400Y-89952003D01*
X246458901Y-89939457D01*
X246507221Y-89888989D01*
X246575155Y-89872657D01*
X246641134Y-89895645D01*
X246684211Y-89950656D01*
X246692999Y-89996504D01*
X246692999Y-91139391D01*
X246673314Y-91206430D01*
X246656680Y-91227072D01*
X244253001Y-93630750D01*
X244252999Y-93630753D01*
X244187107Y-93744879D01*
X244152999Y-93872175D01*
X244152999Y-95404573D01*
X244152997Y-95404607D01*
X244152998Y-95471119D01*
X244152219Y-95485000D01*
X244142042Y-95575353D01*
X244135863Y-95602426D01*
X244108152Y-95681625D01*
X244096105Y-95706643D01*
X244051463Y-95777693D01*
X244034151Y-95799403D01*
X243974815Y-95858741D01*
X243953105Y-95876054D01*
X243882058Y-95920697D01*
X243857040Y-95932745D01*
X243777837Y-95960460D01*
X243750767Y-95966639D01*
X243687669Y-95973748D01*
X243660705Y-95976787D01*
X243646823Y-95977567D01*
X193714904Y-95977567D01*
X193647865Y-95957882D01*
X193602110Y-95905078D01*
X193592166Y-95835920D01*
X193621191Y-95772364D01*
X193650475Y-95747619D01*
X193797646Y-95658122D01*
X194020552Y-95476775D01*
X194216688Y-95266765D01*
X194382400Y-95032003D01*
X194514603Y-94776864D01*
X194610833Y-94506099D01*
X194669297Y-94224753D01*
X194688907Y-93938067D01*
X194669297Y-93651381D01*
X194610833Y-93370035D01*
X194562363Y-93233655D01*
X194514604Y-93099273D01*
X194514605Y-93099273D01*
X194382400Y-92844131D01*
X194216686Y-92609366D01*
X194085933Y-92469365D01*
X194020552Y-92399359D01*
X193797646Y-92218012D01*
X193797645Y-92218011D01*
X193552116Y-92068701D01*
X193288562Y-91954225D01*
X193288560Y-91954224D01*
X193288557Y-91954223D01*
X193159077Y-91917944D01*
X193011863Y-91876697D01*
X193011858Y-91876696D01*
X193011857Y-91876696D01*
X192869517Y-91857131D01*
X192727178Y-91837567D01*
X192727177Y-91837567D01*
X192439821Y-91837567D01*
X192439820Y-91837567D01*
X192155141Y-91876696D01*
X192155134Y-91876697D01*
X191947360Y-91934912D01*
X191878441Y-91954223D01*
X191878438Y-91954223D01*
X191878435Y-91954225D01*
X191878434Y-91954225D01*
X191614881Y-92068701D01*
X191369352Y-92218011D01*
X191146449Y-92399356D01*
X190950311Y-92609366D01*
X190784597Y-92844131D01*
X190652393Y-93099273D01*
X190556166Y-93370029D01*
X190556165Y-93370032D01*
X190497700Y-93651386D01*
X190478091Y-93938067D01*
X190497700Y-94224747D01*
X190556165Y-94506101D01*
X190556166Y-94506104D01*
X190652393Y-94776860D01*
X190652392Y-94776860D01*
X190784597Y-95032002D01*
X190950311Y-95266767D01*
X191035422Y-95357898D01*
X191146446Y-95476775D01*
X191267604Y-95575344D01*
X191369352Y-95658122D01*
X191516523Y-95747619D01*
X191563575Y-95799271D01*
X191575232Y-95868161D01*
X191547794Y-95932418D01*
X191489972Y-95971640D01*
X191452094Y-95977567D01*
X179620461Y-95977567D01*
X179606577Y-95976787D01*
X179516239Y-95966608D01*
X179489167Y-95960429D01*
X179409974Y-95932717D01*
X179384956Y-95920669D01*
X179313908Y-95876025D01*
X179292205Y-95858716D01*
X179232871Y-95799381D01*
X179215562Y-95777675D01*
X179212225Y-95772364D01*
X179170922Y-95706627D01*
X179158879Y-95681621D01*
X179131163Y-95602405D01*
X179124990Y-95575352D01*
X179114777Y-95484694D01*
X179113999Y-95470817D01*
X179114001Y-95412191D01*
X179113999Y-95412186D01*
X179114000Y-95404607D01*
X179113999Y-95404573D01*
X179113999Y-87024396D01*
X179472899Y-87024396D01*
X179499818Y-87159722D01*
X179499821Y-87159732D01*
X179552622Y-87287207D01*
X179629287Y-87401945D01*
X181671454Y-89444112D01*
X181786192Y-89520777D01*
X181913667Y-89573578D01*
X181913672Y-89573580D01*
X181913676Y-89573580D01*
X181913677Y-89573581D01*
X182049003Y-89600500D01*
X182049006Y-89600500D01*
X182049007Y-89600500D01*
X208828481Y-89600500D01*
X208895520Y-89620185D01*
X208916162Y-89636819D01*
X211687385Y-92408042D01*
X211720870Y-92469365D01*
X211715886Y-92539057D01*
X211674014Y-92594990D01*
X211610347Y-92618736D01*
X211610393Y-92619251D01*
X211458370Y-92632551D01*
X211387023Y-92638793D01*
X211387020Y-92638793D01*
X211175677Y-92695422D01*
X211175670Y-92695424D01*
X211175670Y-92695425D01*
X211172391Y-92696954D01*
X210977361Y-92787898D01*
X210977357Y-92787900D01*
X210798121Y-92913402D01*
X210643402Y-93068121D01*
X210517900Y-93247357D01*
X210517898Y-93247361D01*
X210447382Y-93398583D01*
X210401209Y-93451022D01*
X210334016Y-93470174D01*
X210267135Y-93449958D01*
X210222618Y-93398583D01*
X210167725Y-93280866D01*
X210152102Y-93247362D01*
X210152100Y-93247359D01*
X210152099Y-93247357D01*
X210026599Y-93068124D01*
X209951950Y-92993475D01*
X209871877Y-92913402D01*
X209733978Y-92816844D01*
X209692638Y-92787897D01*
X209593484Y-92741661D01*
X209494330Y-92695425D01*
X209494326Y-92695424D01*
X209494322Y-92695422D01*
X209282977Y-92638793D01*
X209065002Y-92619723D01*
X209064998Y-92619723D01*
X208919682Y-92632436D01*
X208847023Y-92638793D01*
X208847020Y-92638793D01*
X208635677Y-92695422D01*
X208635670Y-92695424D01*
X208635670Y-92695425D01*
X208632391Y-92696954D01*
X208437361Y-92787898D01*
X208437357Y-92787900D01*
X208258121Y-92913402D01*
X208103402Y-93068121D01*
X208001074Y-93214262D01*
X207946497Y-93257887D01*
X207876999Y-93265081D01*
X207814644Y-93233558D01*
X207779230Y-93173328D01*
X207775499Y-93143139D01*
X207775499Y-92993482D01*
X207769220Y-92953835D01*
X207760646Y-92899696D01*
X207703050Y-92786658D01*
X207703046Y-92786654D01*
X207703045Y-92786652D01*
X207613347Y-92696954D01*
X207613344Y-92696952D01*
X207613342Y-92696950D01*
X207514655Y-92646666D01*
X207500301Y-92639352D01*
X207406524Y-92624500D01*
X205643482Y-92624500D01*
X205562519Y-92637323D01*
X205549696Y-92639354D01*
X205436658Y-92696950D01*
X205436657Y-92696951D01*
X205436652Y-92696954D01*
X205346954Y-92786652D01*
X205346951Y-92786657D01*
X205346950Y-92786658D01*
X205334368Y-92811351D01*
X205289352Y-92899698D01*
X205274500Y-92993475D01*
X205274500Y-94756517D01*
X205277723Y-94776864D01*
X205289354Y-94850304D01*
X205346950Y-94963342D01*
X205346952Y-94963344D01*
X205346954Y-94963347D01*
X205436652Y-95053045D01*
X205436654Y-95053046D01*
X205436658Y-95053050D01*
X205549694Y-95110645D01*
X205549698Y-95110647D01*
X205643475Y-95125499D01*
X205643481Y-95125500D01*
X207406518Y-95125499D01*
X207500304Y-95110646D01*
X207613342Y-95053050D01*
X207703050Y-94963342D01*
X207760646Y-94850304D01*
X207760646Y-94850302D01*
X207760647Y-94850301D01*
X207775499Y-94756524D01*
X207775500Y-94756519D01*
X207775499Y-94606859D01*
X207795183Y-94539823D01*
X207847987Y-94494068D01*
X207917145Y-94484124D01*
X207980701Y-94513149D01*
X208001073Y-94535738D01*
X208101244Y-94678795D01*
X208103402Y-94681877D01*
X208258123Y-94836598D01*
X208437361Y-94962102D01*
X208635670Y-95054575D01*
X208847023Y-95111207D01*
X209029926Y-95127208D01*
X209064998Y-95130277D01*
X209065000Y-95130277D01*
X209065002Y-95130277D01*
X209093254Y-95127805D01*
X209282977Y-95111207D01*
X209494330Y-95054575D01*
X209692639Y-94962102D01*
X209871877Y-94836598D01*
X210026598Y-94681877D01*
X210152102Y-94502639D01*
X210222618Y-94351414D01*
X210268790Y-94298977D01*
X210335984Y-94279825D01*
X210402865Y-94300041D01*
X210447381Y-94351414D01*
X210517898Y-94502639D01*
X210643402Y-94681877D01*
X210798123Y-94836598D01*
X210977361Y-94962102D01*
X211175670Y-95054575D01*
X211387023Y-95111207D01*
X211569926Y-95127208D01*
X211604998Y-95130277D01*
X211605000Y-95130277D01*
X211605002Y-95130277D01*
X211633254Y-95127805D01*
X211822977Y-95111207D01*
X212034330Y-95054575D01*
X212232639Y-94962102D01*
X212411877Y-94836598D01*
X212566598Y-94681877D01*
X212692102Y-94502639D01*
X212762618Y-94351414D01*
X212808790Y-94298977D01*
X212875984Y-94279825D01*
X212942865Y-94300041D01*
X212987381Y-94351414D01*
X213057898Y-94502639D01*
X213183402Y-94681877D01*
X213338123Y-94836598D01*
X213517361Y-94962102D01*
X213715670Y-95054575D01*
X213927023Y-95111207D01*
X214109926Y-95127208D01*
X214144998Y-95130277D01*
X214145000Y-95130277D01*
X214145002Y-95130277D01*
X214173254Y-95127805D01*
X214362977Y-95111207D01*
X214574330Y-95054575D01*
X214772639Y-94962102D01*
X214951877Y-94836598D01*
X215106598Y-94681877D01*
X215232102Y-94502639D01*
X215302618Y-94351414D01*
X215348790Y-94298977D01*
X215415984Y-94279825D01*
X215482865Y-94300041D01*
X215527381Y-94351414D01*
X215597898Y-94502639D01*
X215723402Y-94681877D01*
X215878123Y-94836598D01*
X216057361Y-94962102D01*
X216255670Y-95054575D01*
X216467023Y-95111207D01*
X216649926Y-95127208D01*
X216684998Y-95130277D01*
X216685000Y-95130277D01*
X216685002Y-95130277D01*
X216713254Y-95127805D01*
X216902977Y-95111207D01*
X217114330Y-95054575D01*
X217312639Y-94962102D01*
X217491877Y-94836598D01*
X217646598Y-94681877D01*
X217772102Y-94502639D01*
X217787726Y-94469132D01*
X217833896Y-94416695D01*
X217901090Y-94397543D01*
X217967971Y-94417758D01*
X218012489Y-94469134D01*
X218051399Y-94552578D01*
X218186894Y-94746082D01*
X218353917Y-94913105D01*
X218547421Y-95048600D01*
X218761507Y-95148429D01*
X218761516Y-95148433D01*
X218975000Y-95205634D01*
X218975000Y-94308012D01*
X219032007Y-94340925D01*
X219159174Y-94375000D01*
X219290826Y-94375000D01*
X219417993Y-94340925D01*
X219475000Y-94308012D01*
X219475000Y-95205633D01*
X219688483Y-95148433D01*
X219688492Y-95148429D01*
X219902578Y-95048600D01*
X220096082Y-94913105D01*
X220263105Y-94746082D01*
X220393425Y-94559968D01*
X220448002Y-94516344D01*
X220517501Y-94509151D01*
X220579855Y-94540673D01*
X220596575Y-94559968D01*
X220726894Y-94746082D01*
X220893917Y-94913105D01*
X221087421Y-95048600D01*
X221301507Y-95148429D01*
X221301516Y-95148433D01*
X221515000Y-95205634D01*
X221515000Y-94308012D01*
X221572007Y-94340925D01*
X221699174Y-94375000D01*
X221830826Y-94375000D01*
X221957993Y-94340925D01*
X222015000Y-94308012D01*
X222015000Y-95205633D01*
X222228483Y-95148433D01*
X222228492Y-95148429D01*
X222442578Y-95048600D01*
X222636082Y-94913105D01*
X222803105Y-94746082D01*
X222938598Y-94552580D01*
X222977509Y-94469135D01*
X223023681Y-94416695D01*
X223090875Y-94397543D01*
X223157756Y-94417758D01*
X223202273Y-94469133D01*
X223209264Y-94484124D01*
X223217898Y-94502639D01*
X223343402Y-94681877D01*
X223498123Y-94836598D01*
X223677361Y-94962102D01*
X223875670Y-95054575D01*
X224087023Y-95111207D01*
X224269926Y-95127208D01*
X224304998Y-95130277D01*
X224305000Y-95130277D01*
X224305002Y-95130277D01*
X224333254Y-95127805D01*
X224522977Y-95111207D01*
X224734330Y-95054575D01*
X224932639Y-94962102D01*
X225111877Y-94836598D01*
X225266598Y-94681877D01*
X225392102Y-94502639D01*
X225484575Y-94304330D01*
X225541207Y-94092977D01*
X225560277Y-93875000D01*
X225541207Y-93657023D01*
X225492423Y-93474958D01*
X225484577Y-93445677D01*
X225484576Y-93445676D01*
X225484575Y-93445670D01*
X225392102Y-93247362D01*
X225392100Y-93247359D01*
X225392099Y-93247357D01*
X225266599Y-93068124D01*
X225191950Y-92993475D01*
X225111877Y-92913402D01*
X224973978Y-92816844D01*
X224932638Y-92787897D01*
X224833484Y-92741661D01*
X224734330Y-92695425D01*
X224734326Y-92695424D01*
X224734322Y-92695422D01*
X224522977Y-92638793D01*
X224305002Y-92619723D01*
X224304998Y-92619723D01*
X224159682Y-92632436D01*
X224087023Y-92638793D01*
X224087020Y-92638793D01*
X223875677Y-92695422D01*
X223875670Y-92695424D01*
X223875670Y-92695425D01*
X223872391Y-92696954D01*
X223677361Y-92787898D01*
X223677357Y-92787900D01*
X223498121Y-92913402D01*
X223343402Y-93068121D01*
X223217900Y-93247357D01*
X223217897Y-93247363D01*
X223202273Y-93280868D01*
X223156099Y-93333307D01*
X223088905Y-93352457D01*
X223022025Y-93332240D01*
X222977509Y-93280865D01*
X222938598Y-93197419D01*
X222803113Y-93003926D01*
X222803108Y-93003920D01*
X222636082Y-92836894D01*
X222442578Y-92701399D01*
X222228492Y-92601570D01*
X222228486Y-92601567D01*
X222015000Y-92544364D01*
X222015000Y-93441988D01*
X221957993Y-93409075D01*
X221830826Y-93375000D01*
X221699174Y-93375000D01*
X221572007Y-93409075D01*
X221515000Y-93441988D01*
X221515000Y-92544364D01*
X221514999Y-92544364D01*
X221301513Y-92601567D01*
X221301507Y-92601570D01*
X221087422Y-92701399D01*
X221087420Y-92701400D01*
X220893926Y-92836886D01*
X220893920Y-92836891D01*
X220726891Y-93003920D01*
X220726890Y-93003922D01*
X220596575Y-93190031D01*
X220541998Y-93233655D01*
X220472499Y-93240848D01*
X220410145Y-93209326D01*
X220393425Y-93190031D01*
X220263109Y-93003922D01*
X220263108Y-93003920D01*
X220096082Y-92836894D01*
X219902578Y-92701399D01*
X219688492Y-92601570D01*
X219688486Y-92601567D01*
X219475000Y-92544364D01*
X219475000Y-93441988D01*
X219417993Y-93409075D01*
X219290826Y-93375000D01*
X219159174Y-93375000D01*
X219032007Y-93409075D01*
X218975000Y-93441988D01*
X218975000Y-92544364D01*
X218974999Y-92544364D01*
X218761513Y-92601567D01*
X218761507Y-92601570D01*
X218547422Y-92701399D01*
X218547420Y-92701400D01*
X218353926Y-92836886D01*
X218353920Y-92836891D01*
X218186891Y-93003920D01*
X218186886Y-93003926D01*
X218051400Y-93197420D01*
X218051399Y-93197422D01*
X218012489Y-93280866D01*
X217966317Y-93333305D01*
X217899123Y-93352457D01*
X217832242Y-93332241D01*
X217787725Y-93280866D01*
X217787725Y-93280865D01*
X217772102Y-93247362D01*
X217772100Y-93247359D01*
X217772099Y-93247357D01*
X217646599Y-93068124D01*
X217571950Y-92993475D01*
X217491877Y-92913402D01*
X217491872Y-92913399D01*
X217491869Y-92913396D01*
X217438376Y-92875939D01*
X217394751Y-92821362D01*
X217385500Y-92774365D01*
X217385500Y-90956517D01*
X217405185Y-90889478D01*
X217421814Y-90868841D01*
X220761333Y-87529321D01*
X220761338Y-87529318D01*
X220771541Y-87519114D01*
X220771543Y-87519114D01*
X224044114Y-84246543D01*
X236037660Y-72252995D01*
X236098981Y-72219512D01*
X236168673Y-72224496D01*
X236224606Y-72266368D01*
X236247812Y-72321279D01*
X236272290Y-72475822D01*
X236281166Y-72503140D01*
X236283160Y-72572981D01*
X236250915Y-72629137D01*
X230609725Y-78270328D01*
X230609724Y-78270329D01*
X230609723Y-78270331D01*
X230561916Y-78341882D01*
X230561915Y-78341883D01*
X230561913Y-78341885D01*
X230538539Y-78376864D01*
X230538533Y-78376875D01*
X230489499Y-78495255D01*
X230489497Y-78495261D01*
X230464500Y-78620928D01*
X230464500Y-91939191D01*
X230444815Y-92006230D01*
X230428181Y-92026872D01*
X229841872Y-92613181D01*
X229780549Y-92646666D01*
X229754191Y-92649500D01*
X228593482Y-92649500D01*
X228512519Y-92662323D01*
X228499696Y-92664354D01*
X228386658Y-92721950D01*
X228386657Y-92721951D01*
X228386652Y-92721954D01*
X228296954Y-92811652D01*
X228296951Y-92811657D01*
X228296950Y-92811658D01*
X228280404Y-92844131D01*
X228239352Y-92924698D01*
X228224500Y-93018475D01*
X228224500Y-94781517D01*
X228233223Y-94836593D01*
X228239354Y-94875304D01*
X228296950Y-94988342D01*
X228296952Y-94988344D01*
X228296954Y-94988347D01*
X228386652Y-95078045D01*
X228386654Y-95078046D01*
X228386658Y-95078050D01*
X228489159Y-95130277D01*
X228499698Y-95135647D01*
X228593475Y-95150499D01*
X228593481Y-95150500D01*
X230356518Y-95150499D01*
X230450304Y-95135646D01*
X230563342Y-95078050D01*
X230653050Y-94988342D01*
X230710646Y-94875304D01*
X230710646Y-94875302D01*
X230710647Y-94875301D01*
X230725499Y-94781524D01*
X230725500Y-94781519D01*
X230725499Y-94631860D01*
X230745183Y-94564823D01*
X230797987Y-94519068D01*
X230867145Y-94509124D01*
X230930701Y-94538149D01*
X230951073Y-94560738D01*
X231053402Y-94706877D01*
X231208123Y-94861598D01*
X231387361Y-94987102D01*
X231585670Y-95079575D01*
X231797023Y-95136207D01*
X231979926Y-95152208D01*
X232014998Y-95155277D01*
X232015000Y-95155277D01*
X232015002Y-95155277D01*
X232043254Y-95152805D01*
X232232977Y-95136207D01*
X232444330Y-95079575D01*
X232642639Y-94987102D01*
X232821877Y-94861598D01*
X232976598Y-94706877D01*
X233102102Y-94527639D01*
X233172618Y-94376414D01*
X233218790Y-94323977D01*
X233285984Y-94304825D01*
X233352865Y-94325041D01*
X233397381Y-94376414D01*
X233467898Y-94527639D01*
X233593402Y-94706877D01*
X233748123Y-94861598D01*
X233927361Y-94987102D01*
X234125670Y-95079575D01*
X234337023Y-95136207D01*
X234519926Y-95152208D01*
X234554998Y-95155277D01*
X234555000Y-95155277D01*
X234555002Y-95155277D01*
X234583254Y-95152805D01*
X234772977Y-95136207D01*
X234984330Y-95079575D01*
X235182639Y-94987102D01*
X235361877Y-94861598D01*
X235516598Y-94706877D01*
X235642102Y-94527639D01*
X235712618Y-94376414D01*
X235758790Y-94323977D01*
X235825984Y-94304825D01*
X235892865Y-94325041D01*
X235937381Y-94376414D01*
X236007898Y-94527639D01*
X236133402Y-94706877D01*
X236288123Y-94861598D01*
X236467361Y-94987102D01*
X236665670Y-95079575D01*
X236877023Y-95136207D01*
X237059926Y-95152208D01*
X237094998Y-95155277D01*
X237095000Y-95155277D01*
X237095002Y-95155277D01*
X237123254Y-95152805D01*
X237312977Y-95136207D01*
X237524330Y-95079575D01*
X237722639Y-94987102D01*
X237901877Y-94861598D01*
X238056598Y-94706877D01*
X238182102Y-94527639D01*
X238252618Y-94376414D01*
X238298790Y-94323977D01*
X238365984Y-94304825D01*
X238432865Y-94325041D01*
X238477381Y-94376414D01*
X238547898Y-94527639D01*
X238673402Y-94706877D01*
X238828123Y-94861598D01*
X239007361Y-94987102D01*
X239205670Y-95079575D01*
X239417023Y-95136207D01*
X239599926Y-95152208D01*
X239634998Y-95155277D01*
X239635000Y-95155277D01*
X239635002Y-95155277D01*
X239663254Y-95152805D01*
X239852977Y-95136207D01*
X240064330Y-95079575D01*
X240262639Y-94987102D01*
X240441877Y-94861598D01*
X240596598Y-94706877D01*
X240722102Y-94527639D01*
X240792618Y-94376414D01*
X240838790Y-94323977D01*
X240905984Y-94304825D01*
X240972865Y-94325041D01*
X241017381Y-94376414D01*
X241087898Y-94527639D01*
X241213402Y-94706877D01*
X241368123Y-94861598D01*
X241547361Y-94987102D01*
X241745670Y-95079575D01*
X241957023Y-95136207D01*
X242139926Y-95152208D01*
X242174998Y-95155277D01*
X242175000Y-95155277D01*
X242175002Y-95155277D01*
X242203254Y-95152805D01*
X242392977Y-95136207D01*
X242604330Y-95079575D01*
X242802639Y-94987102D01*
X242981877Y-94861598D01*
X243136598Y-94706877D01*
X243262102Y-94527639D01*
X243354575Y-94329330D01*
X243411207Y-94117977D01*
X243430277Y-93900000D01*
X243411207Y-93682023D01*
X243354575Y-93470670D01*
X243262102Y-93272362D01*
X243262100Y-93272359D01*
X243262099Y-93272357D01*
X243136599Y-93093124D01*
X243061950Y-93018475D01*
X242981877Y-92938402D01*
X242843350Y-92841404D01*
X242802638Y-92812897D01*
X242698536Y-92764354D01*
X242604330Y-92720425D01*
X242604326Y-92720424D01*
X242604322Y-92720422D01*
X242392977Y-92663793D01*
X242175002Y-92644723D01*
X242174998Y-92644723D01*
X242029682Y-92657436D01*
X241957023Y-92663793D01*
X241957020Y-92663793D01*
X241745677Y-92720422D01*
X241745670Y-92720424D01*
X241745670Y-92720425D01*
X241742391Y-92721954D01*
X241547361Y-92812898D01*
X241547357Y-92812900D01*
X241368121Y-92938402D01*
X241213402Y-93093121D01*
X241087900Y-93272357D01*
X241087898Y-93272361D01*
X241017382Y-93423583D01*
X240971209Y-93476022D01*
X240904016Y-93495174D01*
X240837135Y-93474958D01*
X240792618Y-93423583D01*
X240750024Y-93332241D01*
X240722102Y-93272362D01*
X240722100Y-93272359D01*
X240722099Y-93272357D01*
X240596599Y-93093124D01*
X240521950Y-93018475D01*
X240441877Y-92938402D01*
X240303350Y-92841404D01*
X240262638Y-92812897D01*
X240158536Y-92764354D01*
X240064330Y-92720425D01*
X240064326Y-92720424D01*
X240064322Y-92720422D01*
X239852977Y-92663793D01*
X239635002Y-92644723D01*
X239634998Y-92644723D01*
X239489682Y-92657436D01*
X239417023Y-92663793D01*
X239417020Y-92663793D01*
X239205677Y-92720422D01*
X239205670Y-92720424D01*
X239205670Y-92720425D01*
X239202391Y-92721954D01*
X239007361Y-92812898D01*
X239007357Y-92812900D01*
X238828121Y-92938402D01*
X238673402Y-93093121D01*
X238547900Y-93272357D01*
X238547898Y-93272361D01*
X238477382Y-93423583D01*
X238431209Y-93476022D01*
X238364016Y-93495174D01*
X238297135Y-93474958D01*
X238252618Y-93423583D01*
X238210024Y-93332241D01*
X238182102Y-93272362D01*
X238182100Y-93272359D01*
X238182099Y-93272357D01*
X238056599Y-93093124D01*
X237981950Y-93018475D01*
X237901877Y-92938402D01*
X237763350Y-92841404D01*
X237722638Y-92812897D01*
X237618536Y-92764354D01*
X237524330Y-92720425D01*
X237524326Y-92720424D01*
X237524322Y-92720422D01*
X237312977Y-92663793D01*
X237095002Y-92644723D01*
X237094998Y-92644723D01*
X236949682Y-92657436D01*
X236877023Y-92663793D01*
X236877020Y-92663793D01*
X236665677Y-92720422D01*
X236665670Y-92720424D01*
X236665670Y-92720425D01*
X236662391Y-92721954D01*
X236467361Y-92812898D01*
X236467357Y-92812900D01*
X236288121Y-92938402D01*
X236133402Y-93093121D01*
X236007900Y-93272357D01*
X236007898Y-93272361D01*
X235937382Y-93423583D01*
X235891209Y-93476022D01*
X235824016Y-93495174D01*
X235757135Y-93474958D01*
X235712618Y-93423583D01*
X235670024Y-93332241D01*
X235642102Y-93272362D01*
X235642100Y-93272359D01*
X235642099Y-93272357D01*
X235516599Y-93093124D01*
X235441950Y-93018475D01*
X235361877Y-92938402D01*
X235223350Y-92841404D01*
X235182638Y-92812897D01*
X235078536Y-92764354D01*
X234984330Y-92720425D01*
X234984326Y-92720424D01*
X234984322Y-92720422D01*
X234772977Y-92663793D01*
X234555002Y-92644723D01*
X234554998Y-92644723D01*
X234409682Y-92657436D01*
X234337023Y-92663793D01*
X234337020Y-92663793D01*
X234125677Y-92720422D01*
X234125670Y-92720424D01*
X234125670Y-92720425D01*
X234122391Y-92721954D01*
X233927361Y-92812898D01*
X233927357Y-92812900D01*
X233748121Y-92938402D01*
X233593402Y-93093121D01*
X233467900Y-93272357D01*
X233467898Y-93272361D01*
X233397382Y-93423583D01*
X233351209Y-93476022D01*
X233284016Y-93495174D01*
X233217135Y-93474958D01*
X233172618Y-93423583D01*
X233130024Y-93332241D01*
X233102102Y-93272362D01*
X233102100Y-93272359D01*
X233102099Y-93272357D01*
X232976599Y-93093124D01*
X232901950Y-93018475D01*
X232821877Y-92938402D01*
X232821872Y-92938399D01*
X232821869Y-92938396D01*
X232718376Y-92865928D01*
X232674751Y-92811351D01*
X232665500Y-92764354D01*
X232665500Y-79730807D01*
X232685185Y-79663768D01*
X232701814Y-79643131D01*
X236620286Y-75724658D01*
X236681607Y-75691175D01*
X236751299Y-75696159D01*
X236780850Y-75712022D01*
X236836595Y-75752524D01*
X236905613Y-75787690D01*
X236973960Y-75822515D01*
X237024756Y-75870490D01*
X237041551Y-75938311D01*
X237019014Y-76004446D01*
X236973960Y-76043485D01*
X236836594Y-76113476D01*
X236745741Y-76179485D01*
X236677354Y-76229172D01*
X236677352Y-76229174D01*
X236677351Y-76229174D01*
X236538174Y-76368351D01*
X236538174Y-76368352D01*
X236538172Y-76368354D01*
X236502930Y-76416860D01*
X236422476Y-76527594D01*
X236333117Y-76702970D01*
X236272290Y-76890173D01*
X236241500Y-77084577D01*
X236241500Y-77281422D01*
X236272290Y-77475826D01*
X236333117Y-77663029D01*
X236422476Y-77838405D01*
X236538172Y-77997646D01*
X236677354Y-78136828D01*
X236836595Y-78252524D01*
X236919455Y-78294743D01*
X237011970Y-78341882D01*
X237011972Y-78341882D01*
X237011975Y-78341884D01*
X237112317Y-78374487D01*
X237199173Y-78402709D01*
X237393578Y-78433500D01*
X237393583Y-78433500D01*
X237840422Y-78433500D01*
X238034826Y-78402709D01*
X238222025Y-78341884D01*
X238397405Y-78252524D01*
X238556646Y-78136828D01*
X238695828Y-77997646D01*
X238811524Y-77838405D01*
X238900884Y-77663025D01*
X238961709Y-77475826D01*
X238967487Y-77439343D01*
X238992500Y-77281422D01*
X238992500Y-77084577D01*
X238961709Y-76890177D01*
X238961709Y-76890174D01*
X238952833Y-76862860D01*
X238950837Y-76793022D01*
X238983081Y-76736863D01*
X241805277Y-73914669D01*
X241876466Y-73808126D01*
X241925501Y-73689743D01*
X241950500Y-73564069D01*
X241950500Y-73435931D01*
X241950500Y-50862931D01*
X241950500Y-50862928D01*
X241925502Y-50737261D01*
X241925501Y-50737260D01*
X241925501Y-50737256D01*
X241876465Y-50618873D01*
X241860966Y-50595677D01*
X241860964Y-50595673D01*
X241805275Y-50512328D01*
X240208819Y-48915872D01*
X240175334Y-48854549D01*
X240172500Y-48828191D01*
X240172500Y-48102928D01*
X240147502Y-47977261D01*
X240147501Y-47977260D01*
X240147501Y-47977256D01*
X240098465Y-47858873D01*
X240027277Y-47752331D01*
X240027275Y-47752329D01*
X240027273Y-47752326D01*
X240027272Y-47752325D01*
X239361151Y-47086205D01*
X239327666Y-47024882D01*
X239332650Y-46955191D01*
X239374521Y-46899257D01*
X239439986Y-46874840D01*
X239459635Y-46874995D01*
X239507267Y-46879163D01*
X239519999Y-46880277D01*
X239520000Y-46880277D01*
X239520002Y-46880277D01*
X239548254Y-46877805D01*
X239737977Y-46861207D01*
X239949330Y-46804575D01*
X240147639Y-46712102D01*
X240326877Y-46586598D01*
X240481598Y-46431877D01*
X240583928Y-46285734D01*
X240638502Y-46242112D01*
X240708000Y-46234918D01*
X240770355Y-46266441D01*
X240805769Y-46326670D01*
X240809500Y-46356859D01*
X240809500Y-46506517D01*
X240813331Y-46530703D01*
X240824354Y-46600304D01*
X240881950Y-46713342D01*
X240881952Y-46713344D01*
X240881954Y-46713347D01*
X240971652Y-46803045D01*
X240971654Y-46803046D01*
X240971658Y-46803050D01*
X241081399Y-46858966D01*
X241084698Y-46860647D01*
X241178475Y-46875499D01*
X241178481Y-46875500D01*
X242941518Y-46875499D01*
X243035304Y-46860646D01*
X243148342Y-46803050D01*
X243238050Y-46713342D01*
X243295646Y-46600304D01*
X243295646Y-46600302D01*
X243295647Y-46600301D01*
X243310499Y-46506524D01*
X243310500Y-46506519D01*
X243310499Y-44743482D01*
X243295646Y-44649696D01*
X243238050Y-44536658D01*
X243238046Y-44536654D01*
X243238045Y-44536652D01*
X243148347Y-44446954D01*
X243148344Y-44446952D01*
X243148342Y-44446950D01*
X243071517Y-44407805D01*
X243035301Y-44389352D01*
X242941524Y-44374500D01*
X241178482Y-44374500D01*
X241097519Y-44387323D01*
X241084696Y-44389354D01*
X240971658Y-44446950D01*
X240971657Y-44446951D01*
X240971652Y-44446954D01*
X240881954Y-44536652D01*
X240881951Y-44536657D01*
X240881950Y-44536658D01*
X240862751Y-44574337D01*
X240824352Y-44649698D01*
X240809500Y-44743475D01*
X240809500Y-44893138D01*
X240789815Y-44960177D01*
X240737011Y-45005932D01*
X240667853Y-45015876D01*
X240604297Y-44986851D01*
X240583925Y-44964261D01*
X240481599Y-44818124D01*
X240406950Y-44743475D01*
X240326877Y-44663402D01*
X240188978Y-44566844D01*
X240147638Y-44537897D01*
X240048484Y-44491661D01*
X239949330Y-44445425D01*
X239949326Y-44445424D01*
X239949322Y-44445422D01*
X239737977Y-44388793D01*
X239520002Y-44369723D01*
X239519998Y-44369723D01*
X239374682Y-44382436D01*
X239302023Y-44388793D01*
X239302020Y-44388793D01*
X239090677Y-44445422D01*
X239090670Y-44445424D01*
X239090670Y-44445425D01*
X239087391Y-44446954D01*
X238892361Y-44537898D01*
X238892357Y-44537900D01*
X238713121Y-44663402D01*
X238558402Y-44818121D01*
X238432900Y-44997357D01*
X238432898Y-44997361D01*
X238362382Y-45148583D01*
X238316209Y-45201022D01*
X238249016Y-45220174D01*
X238182135Y-45199958D01*
X238137618Y-45148583D01*
X238106050Y-45080886D01*
X238067102Y-44997362D01*
X238067100Y-44997359D01*
X238067099Y-44997357D01*
X237941599Y-44818124D01*
X237866950Y-44743475D01*
X237786877Y-44663402D01*
X237648978Y-44566844D01*
X237607638Y-44537897D01*
X237508484Y-44491661D01*
X237409330Y-44445425D01*
X237409326Y-44445424D01*
X237409322Y-44445422D01*
X237197977Y-44388793D01*
X236980002Y-44369723D01*
X236979998Y-44369723D01*
X236834682Y-44382436D01*
X236762023Y-44388793D01*
X236762020Y-44388793D01*
X236550677Y-44445422D01*
X236550670Y-44445424D01*
X236550670Y-44445425D01*
X236547391Y-44446954D01*
X236352361Y-44537898D01*
X236352357Y-44537900D01*
X236173121Y-44663402D01*
X236018402Y-44818121D01*
X235892900Y-44997357D01*
X235892898Y-44997361D01*
X235822382Y-45148583D01*
X235776209Y-45201022D01*
X235709016Y-45220174D01*
X235642135Y-45199958D01*
X235597618Y-45148583D01*
X235566050Y-45080886D01*
X235527102Y-44997362D01*
X235527100Y-44997359D01*
X235527099Y-44997357D01*
X235401599Y-44818124D01*
X235326950Y-44743475D01*
X235246877Y-44663402D01*
X235108978Y-44566844D01*
X235067638Y-44537897D01*
X234968484Y-44491661D01*
X234869330Y-44445425D01*
X234869326Y-44445424D01*
X234869322Y-44445422D01*
X234657977Y-44388793D01*
X234440002Y-44369723D01*
X234439998Y-44369723D01*
X234294682Y-44382436D01*
X234222023Y-44388793D01*
X234222020Y-44388793D01*
X234010677Y-44445422D01*
X234010670Y-44445424D01*
X234010670Y-44445425D01*
X234007391Y-44446954D01*
X233812361Y-44537898D01*
X233812357Y-44537900D01*
X233633121Y-44663402D01*
X233478402Y-44818121D01*
X233352900Y-44997357D01*
X233352898Y-44997361D01*
X233282382Y-45148583D01*
X233236209Y-45201022D01*
X233169016Y-45220174D01*
X233102135Y-45199958D01*
X233057618Y-45148583D01*
X233026050Y-45080886D01*
X232987102Y-44997362D01*
X232987100Y-44997359D01*
X232987099Y-44997357D01*
X232861599Y-44818124D01*
X232786950Y-44743475D01*
X232706877Y-44663402D01*
X232568978Y-44566844D01*
X232527638Y-44537897D01*
X232428484Y-44491661D01*
X232329330Y-44445425D01*
X232329326Y-44445424D01*
X232329322Y-44445422D01*
X232117977Y-44388793D01*
X231900002Y-44369723D01*
X231899998Y-44369723D01*
X231754682Y-44382436D01*
X231682023Y-44388793D01*
X231682020Y-44388793D01*
X231470677Y-44445422D01*
X231470670Y-44445424D01*
X231470670Y-44445425D01*
X231467391Y-44446954D01*
X231272361Y-44537898D01*
X231272357Y-44537900D01*
X231093121Y-44663402D01*
X230938402Y-44818121D01*
X230812900Y-44997357D01*
X230812898Y-44997361D01*
X230742382Y-45148583D01*
X230696209Y-45201022D01*
X230629016Y-45220174D01*
X230562135Y-45199958D01*
X230517618Y-45148583D01*
X230486050Y-45080886D01*
X230447102Y-44997362D01*
X230447100Y-44997359D01*
X230447099Y-44997357D01*
X230321599Y-44818124D01*
X230246950Y-44743475D01*
X230166877Y-44663402D01*
X230028978Y-44566844D01*
X229987638Y-44537897D01*
X229888484Y-44491661D01*
X229789330Y-44445425D01*
X229789326Y-44445424D01*
X229789322Y-44445422D01*
X229577977Y-44388793D01*
X229360002Y-44369723D01*
X229359998Y-44369723D01*
X229214682Y-44382436D01*
X229142023Y-44388793D01*
X229142020Y-44388793D01*
X228930677Y-44445422D01*
X228930670Y-44445424D01*
X228930670Y-44445425D01*
X228927391Y-44446954D01*
X228732361Y-44537898D01*
X228732357Y-44537900D01*
X228553121Y-44663402D01*
X228398402Y-44818121D01*
X228272900Y-44997357D01*
X228272898Y-44997361D01*
X228202382Y-45148583D01*
X228156209Y-45201022D01*
X228089016Y-45220174D01*
X228022135Y-45199958D01*
X227977618Y-45148583D01*
X227946050Y-45080886D01*
X227907102Y-44997362D01*
X227907100Y-44997359D01*
X227907099Y-44997357D01*
X227781599Y-44818124D01*
X227706950Y-44743475D01*
X227626877Y-44663402D01*
X227488978Y-44566844D01*
X227447638Y-44537897D01*
X227348484Y-44491661D01*
X227249330Y-44445425D01*
X227249326Y-44445424D01*
X227249322Y-44445422D01*
X227037977Y-44388793D01*
X226820002Y-44369723D01*
X226819998Y-44369723D01*
X226674682Y-44382436D01*
X226602023Y-44388793D01*
X226602020Y-44388793D01*
X226390677Y-44445422D01*
X226390670Y-44445424D01*
X226390670Y-44445425D01*
X226387391Y-44446954D01*
X226192361Y-44537898D01*
X226192357Y-44537900D01*
X226013121Y-44663402D01*
X225858402Y-44818121D01*
X225732900Y-44997357D01*
X225732898Y-44997361D01*
X225662382Y-45148583D01*
X225616209Y-45201022D01*
X225549016Y-45220174D01*
X225482135Y-45199958D01*
X225437618Y-45148583D01*
X225406050Y-45080886D01*
X225367102Y-44997362D01*
X225367100Y-44997359D01*
X225367099Y-44997357D01*
X225241599Y-44818124D01*
X225166950Y-44743475D01*
X225086877Y-44663402D01*
X224948978Y-44566844D01*
X224907638Y-44537897D01*
X224808484Y-44491661D01*
X224709330Y-44445425D01*
X224709326Y-44445424D01*
X224709322Y-44445422D01*
X224497977Y-44388793D01*
X224280002Y-44369723D01*
X224279998Y-44369723D01*
X224134682Y-44382436D01*
X224062023Y-44388793D01*
X224062020Y-44388793D01*
X223850677Y-44445422D01*
X223850670Y-44445424D01*
X223850670Y-44445425D01*
X223847391Y-44446954D01*
X223652361Y-44537898D01*
X223652357Y-44537900D01*
X223473121Y-44663402D01*
X223318402Y-44818121D01*
X223192900Y-44997357D01*
X223192898Y-44997361D01*
X223100426Y-45195668D01*
X223100422Y-45195677D01*
X223043793Y-45407020D01*
X223043793Y-45407024D01*
X223024723Y-45624997D01*
X223024723Y-45625002D01*
X223043793Y-45842975D01*
X223043793Y-45842979D01*
X223100422Y-46054322D01*
X223100424Y-46054326D01*
X223100425Y-46054330D01*
X223124900Y-46106817D01*
X223192897Y-46252638D01*
X223217998Y-46288486D01*
X223318402Y-46431877D01*
X223473123Y-46586598D01*
X223652361Y-46712102D01*
X223850670Y-46804575D01*
X224062023Y-46861207D01*
X224244926Y-46877208D01*
X224279998Y-46880277D01*
X224280000Y-46880277D01*
X224280002Y-46880277D01*
X224308254Y-46877805D01*
X224497977Y-46861207D01*
X224709330Y-46804575D01*
X224907639Y-46712102D01*
X225086877Y-46586598D01*
X225241598Y-46431877D01*
X225367102Y-46252639D01*
X225437618Y-46101414D01*
X225483790Y-46048977D01*
X225550984Y-46029825D01*
X225617865Y-46050041D01*
X225662381Y-46101414D01*
X225732898Y-46252639D01*
X225858402Y-46431877D01*
X226013123Y-46586598D01*
X226192361Y-46712102D01*
X226390670Y-46804575D01*
X226602023Y-46861207D01*
X226784926Y-46877208D01*
X226819998Y-46880277D01*
X226820000Y-46880277D01*
X226820002Y-46880277D01*
X226848254Y-46877805D01*
X227037977Y-46861207D01*
X227249330Y-46804575D01*
X227447639Y-46712102D01*
X227626877Y-46586598D01*
X227781598Y-46431877D01*
X227907102Y-46252639D01*
X227977618Y-46101414D01*
X228023790Y-46048977D01*
X228090984Y-46029825D01*
X228157865Y-46050041D01*
X228202381Y-46101414D01*
X228272898Y-46252639D01*
X228398402Y-46431877D01*
X228553123Y-46586598D01*
X228732361Y-46712102D01*
X228930670Y-46804575D01*
X229142023Y-46861207D01*
X229324926Y-46877208D01*
X229359998Y-46880277D01*
X229360000Y-46880277D01*
X229360002Y-46880277D01*
X229388254Y-46877805D01*
X229577977Y-46861207D01*
X229789330Y-46804575D01*
X229987639Y-46712102D01*
X230166877Y-46586598D01*
X230321598Y-46431877D01*
X230447102Y-46252639D01*
X230517618Y-46101414D01*
X230563790Y-46048977D01*
X230630984Y-46029825D01*
X230697865Y-46050041D01*
X230742381Y-46101414D01*
X230812898Y-46252639D01*
X230938402Y-46431877D01*
X231093123Y-46586598D01*
X231272361Y-46712102D01*
X231470670Y-46804575D01*
X231682023Y-46861207D01*
X231864926Y-46877208D01*
X231899998Y-46880277D01*
X231900000Y-46880277D01*
X231900002Y-46880277D01*
X231928254Y-46877805D01*
X232117977Y-46861207D01*
X232329330Y-46804575D01*
X232527639Y-46712102D01*
X232706877Y-46586598D01*
X232861598Y-46431877D01*
X232987102Y-46252639D01*
X233057618Y-46101414D01*
X233103790Y-46048977D01*
X233170984Y-46029825D01*
X233237865Y-46050041D01*
X233282381Y-46101414D01*
X233352898Y-46252639D01*
X233478402Y-46431877D01*
X233633123Y-46586598D01*
X233812361Y-46712102D01*
X234010670Y-46804575D01*
X234222023Y-46861207D01*
X234404926Y-46877208D01*
X234439998Y-46880277D01*
X234440000Y-46880277D01*
X234440002Y-46880277D01*
X234468254Y-46877805D01*
X234657977Y-46861207D01*
X234869330Y-46804575D01*
X235067639Y-46712102D01*
X235246877Y-46586598D01*
X235401598Y-46431877D01*
X235527102Y-46252639D01*
X235597618Y-46101414D01*
X235643790Y-46048977D01*
X235710984Y-46029825D01*
X235777865Y-46050041D01*
X235822381Y-46101414D01*
X235892898Y-46252639D01*
X236018402Y-46431877D01*
X236173123Y-46586598D01*
X236352361Y-46712102D01*
X236550670Y-46804575D01*
X236762023Y-46861207D01*
X236944926Y-46877208D01*
X236979998Y-46880277D01*
X236980000Y-46880277D01*
X236980002Y-46880277D01*
X237042147Y-46874840D01*
X237197977Y-46861207D01*
X237206340Y-46858966D01*
X237276189Y-46860629D01*
X237326114Y-46891060D01*
X238835181Y-48400127D01*
X238868666Y-48461450D01*
X238871500Y-48487808D01*
X238871500Y-49213069D01*
X238871500Y-49213071D01*
X238871499Y-49213071D01*
X238896497Y-49338738D01*
X238896499Y-49338744D01*
X238945534Y-49457125D01*
X239016726Y-49563673D01*
X239016727Y-49563674D01*
X240613181Y-51160127D01*
X240646666Y-51221450D01*
X240649500Y-51247808D01*
X240649500Y-73179191D01*
X240629815Y-73246230D01*
X240613181Y-73266872D01*
X239204181Y-74675872D01*
X239142858Y-74709357D01*
X239073166Y-74704373D01*
X239017233Y-74662501D01*
X238992816Y-74597037D01*
X238992500Y-74588191D01*
X238992500Y-74584577D01*
X238961709Y-74390173D01*
X238924993Y-74277174D01*
X238900884Y-74202975D01*
X238900882Y-74202972D01*
X238900882Y-74202970D01*
X238834208Y-74072116D01*
X238811524Y-74027595D01*
X238695828Y-73868354D01*
X238556646Y-73729172D01*
X238397405Y-73613476D01*
X238260038Y-73543484D01*
X238209243Y-73495511D01*
X238192448Y-73427690D01*
X238214985Y-73361555D01*
X238260039Y-73322515D01*
X238397405Y-73252524D01*
X238556646Y-73136828D01*
X238695828Y-72997646D01*
X238811524Y-72838405D01*
X238900884Y-72663025D01*
X238961709Y-72475826D01*
X238961710Y-72475822D01*
X238992500Y-72281422D01*
X238992500Y-72084577D01*
X238961709Y-71890173D01*
X238900882Y-71702970D01*
X238827107Y-71558179D01*
X238811524Y-71527595D01*
X238695828Y-71368354D01*
X238556646Y-71229172D01*
X238397405Y-71113476D01*
X238260038Y-71043484D01*
X238209243Y-70995511D01*
X238192448Y-70927690D01*
X238214985Y-70861555D01*
X238260039Y-70822515D01*
X238397405Y-70752524D01*
X238556646Y-70636828D01*
X238695828Y-70497646D01*
X238811524Y-70338405D01*
X238900884Y-70163025D01*
X238961709Y-69975826D01*
X238963222Y-69966276D01*
X238992500Y-69781422D01*
X238992500Y-69584577D01*
X238961709Y-69390173D01*
X238926885Y-69282998D01*
X238900884Y-69202975D01*
X238900882Y-69202972D01*
X238900882Y-69202970D01*
X238811523Y-69027594D01*
X238695828Y-68868354D01*
X238556646Y-68729172D01*
X238537362Y-68715161D01*
X238494698Y-68659832D01*
X238488720Y-68590218D01*
X238521327Y-68528423D01*
X238571247Y-68497139D01*
X238661117Y-68467359D01*
X238661124Y-68467356D01*
X238810345Y-68375315D01*
X238934315Y-68251345D01*
X239026356Y-68102124D01*
X239026358Y-68102119D01*
X239081505Y-67935697D01*
X239081506Y-67935690D01*
X239091999Y-67832986D01*
X239092000Y-67832973D01*
X239092000Y-67433000D01*
X238021146Y-67433000D01*
X238059630Y-67366343D01*
X238092000Y-67245535D01*
X238092000Y-67120465D01*
X238059630Y-66999657D01*
X238021146Y-66933000D01*
X239091999Y-66933000D01*
X239091999Y-66533028D01*
X239091998Y-66533013D01*
X239081505Y-66430302D01*
X239026358Y-66263880D01*
X239026356Y-66263875D01*
X238934315Y-66114654D01*
X238810345Y-65990684D01*
X238661124Y-65898643D01*
X238661119Y-65898641D01*
X238494697Y-65843494D01*
X238494690Y-65843493D01*
X238391986Y-65833000D01*
X237867000Y-65833000D01*
X237867000Y-66778854D01*
X237800343Y-66740370D01*
X237679535Y-66708000D01*
X237554465Y-66708000D01*
X237433657Y-66740370D01*
X237367000Y-66778854D01*
X237367000Y-65833000D01*
X236842028Y-65833000D01*
X236842012Y-65833001D01*
X236739302Y-65843494D01*
X236572880Y-65898641D01*
X236572875Y-65898643D01*
X236423654Y-65990684D01*
X236299684Y-66114654D01*
X236207643Y-66263875D01*
X236207641Y-66263880D01*
X236152494Y-66430302D01*
X236152493Y-66430309D01*
X236142000Y-66533013D01*
X236142000Y-66933000D01*
X237212854Y-66933000D01*
X237174370Y-66999657D01*
X237142000Y-67120465D01*
X237142000Y-67245535D01*
X237174370Y-67366343D01*
X237212854Y-67433000D01*
X236142001Y-67433000D01*
X236142001Y-67832986D01*
X236152494Y-67935697D01*
X236207641Y-68102119D01*
X236207643Y-68102124D01*
X236299684Y-68251345D01*
X236423654Y-68375315D01*
X236572875Y-68467356D01*
X236572880Y-68467358D01*
X236662753Y-68497139D01*
X236720198Y-68536911D01*
X236747021Y-68601427D01*
X236734706Y-68670203D01*
X236696637Y-68715161D01*
X236677354Y-68729172D01*
X236677352Y-68729174D01*
X236677351Y-68729174D01*
X236538174Y-68868351D01*
X236538174Y-68868352D01*
X236538172Y-68868354D01*
X236488485Y-68936741D01*
X236422476Y-69027594D01*
X236333117Y-69202970D01*
X236272290Y-69390173D01*
X236241500Y-69584577D01*
X236241500Y-69781422D01*
X236270778Y-69966276D01*
X236261823Y-70035570D01*
X236235986Y-70073355D01*
X223053457Y-83255886D01*
X221237181Y-85072162D01*
X221175858Y-85105647D01*
X221106166Y-85100663D01*
X221050233Y-85058791D01*
X221025816Y-84993327D01*
X221025500Y-84984481D01*
X221025500Y-84681004D01*
X220998581Y-84545677D01*
X220998580Y-84545676D01*
X220998580Y-84545672D01*
X220945775Y-84418189D01*
X220896280Y-84344114D01*
X220869114Y-84303457D01*
X220869111Y-84303453D01*
X218571545Y-82005887D01*
X218456807Y-81929222D01*
X218329332Y-81876421D01*
X218329322Y-81876418D01*
X218193996Y-81849500D01*
X218193994Y-81849500D01*
X218193993Y-81849500D01*
X216667902Y-81849500D01*
X216600863Y-81829815D01*
X216589242Y-81821357D01*
X216539079Y-81780189D01*
X216458539Y-81714090D01*
X216458532Y-81714086D01*
X216284733Y-81621188D01*
X216284727Y-81621186D01*
X216096132Y-81563976D01*
X216096129Y-81563975D01*
X215900000Y-81544659D01*
X215703870Y-81563975D01*
X215515266Y-81621188D01*
X215341467Y-81714086D01*
X215341460Y-81714090D01*
X215189116Y-81839116D01*
X215064090Y-81991460D01*
X215064086Y-81991467D01*
X214971188Y-82165266D01*
X214913975Y-82353870D01*
X214894659Y-82550000D01*
X214913975Y-82746129D01*
X214971188Y-82934733D01*
X215064086Y-83108532D01*
X215064090Y-83108539D01*
X215189116Y-83260883D01*
X215341460Y-83385909D01*
X215341467Y-83385913D01*
X215515266Y-83478811D01*
X215515269Y-83478811D01*
X215515273Y-83478814D01*
X215703868Y-83536024D01*
X215900000Y-83555341D01*
X216096132Y-83536024D01*
X216284727Y-83478814D01*
X216458538Y-83385910D01*
X216589238Y-83278646D01*
X216653546Y-83251334D01*
X216667902Y-83250500D01*
X217783481Y-83250500D01*
X217850520Y-83270185D01*
X217871162Y-83286819D01*
X219588181Y-85003838D01*
X219621666Y-85065161D01*
X219624500Y-85091519D01*
X219624500Y-86633480D01*
X219604815Y-86700519D01*
X219588181Y-86721161D01*
X216140888Y-90168453D01*
X216140887Y-90168454D01*
X216064222Y-90283192D01*
X216011421Y-90410667D01*
X216011418Y-90410677D01*
X215984500Y-90546004D01*
X215984500Y-92774365D01*
X215964815Y-92841404D01*
X215931624Y-92875939D01*
X215878130Y-92913396D01*
X215878127Y-92913398D01*
X215723400Y-93068124D01*
X215597900Y-93247357D01*
X215597898Y-93247361D01*
X215527382Y-93398583D01*
X215481209Y-93451022D01*
X215414016Y-93470174D01*
X215347135Y-93449958D01*
X215302618Y-93398583D01*
X215247725Y-93280866D01*
X215232102Y-93247362D01*
X215232100Y-93247359D01*
X215232099Y-93247357D01*
X215106599Y-93068124D01*
X215031950Y-92993475D01*
X214951877Y-92913402D01*
X214813978Y-92816844D01*
X214772638Y-92787897D01*
X214673484Y-92741661D01*
X214574330Y-92695425D01*
X214574326Y-92695424D01*
X214574322Y-92695422D01*
X214362977Y-92638793D01*
X214145002Y-92619723D01*
X214144998Y-92619723D01*
X214050941Y-92627951D01*
X213959269Y-92635971D01*
X213890770Y-92622205D01*
X213860782Y-92600125D01*
X195947546Y-74686888D01*
X195947545Y-74686887D01*
X195832807Y-74610222D01*
X195705332Y-74557421D01*
X195705322Y-74557418D01*
X195569996Y-74530500D01*
X195569994Y-74530500D01*
X195569993Y-74530500D01*
X185882941Y-74530500D01*
X185815902Y-74510815D01*
X185782623Y-74479386D01*
X185736828Y-74416354D01*
X185597646Y-74277172D01*
X185525586Y-74224817D01*
X185482922Y-74169487D01*
X185476943Y-74099874D01*
X185509549Y-74038079D01*
X185570388Y-74003722D01*
X185598473Y-74000500D01*
X191255071Y-74000500D01*
X191339615Y-73983682D01*
X191380744Y-73975501D01*
X191499127Y-73926465D01*
X191528045Y-73907143D01*
X191528046Y-73907143D01*
X191586131Y-73868331D01*
X191605669Y-73855277D01*
X200403276Y-65057670D01*
X200422975Y-65028189D01*
X200474465Y-64951127D01*
X200523501Y-64832744D01*
X200548499Y-64707069D01*
X200548499Y-64578931D01*
X200532883Y-64500422D01*
X200530500Y-64476231D01*
X200530500Y-46760644D01*
X200550185Y-46693605D01*
X200583377Y-46659069D01*
X200686877Y-46586598D01*
X200841598Y-46431877D01*
X200967102Y-46252639D01*
X201037618Y-46101414D01*
X201083790Y-46048977D01*
X201150984Y-46029825D01*
X201217865Y-46050041D01*
X201262381Y-46101414D01*
X201332898Y-46252639D01*
X201458402Y-46431877D01*
X201613123Y-46586598D01*
X201792361Y-46712102D01*
X201990670Y-46804575D01*
X202202023Y-46861207D01*
X202384926Y-46877208D01*
X202419998Y-46880277D01*
X202420000Y-46880277D01*
X202420002Y-46880277D01*
X202448254Y-46877805D01*
X202637977Y-46861207D01*
X202849330Y-46804575D01*
X203047639Y-46712102D01*
X203226877Y-46586598D01*
X203381598Y-46431877D01*
X203507102Y-46252639D01*
X203522726Y-46219132D01*
X203568896Y-46166695D01*
X203636090Y-46147543D01*
X203702971Y-46167758D01*
X203747489Y-46219134D01*
X203786399Y-46302578D01*
X203921894Y-46496082D01*
X204088917Y-46663105D01*
X204282421Y-46798600D01*
X204496507Y-46898429D01*
X204496516Y-46898433D01*
X204710000Y-46955634D01*
X204710000Y-46058012D01*
X204767007Y-46090925D01*
X204894174Y-46125000D01*
X205025826Y-46125000D01*
X205152993Y-46090925D01*
X205210000Y-46058012D01*
X205210000Y-46955633D01*
X205423483Y-46898433D01*
X205423492Y-46898429D01*
X205637578Y-46798600D01*
X205831082Y-46663105D01*
X205998105Y-46496082D01*
X206133598Y-46302580D01*
X206172509Y-46219135D01*
X206218681Y-46166695D01*
X206285875Y-46147543D01*
X206352756Y-46167758D01*
X206397273Y-46219133D01*
X206405715Y-46237236D01*
X206412898Y-46252639D01*
X206538402Y-46431877D01*
X206693123Y-46586598D01*
X206872361Y-46712102D01*
X207070670Y-46804575D01*
X207282023Y-46861207D01*
X207464926Y-46877208D01*
X207499998Y-46880277D01*
X207500000Y-46880277D01*
X207500002Y-46880277D01*
X207528254Y-46877805D01*
X207717977Y-46861207D01*
X207929330Y-46804575D01*
X208127639Y-46712102D01*
X208306877Y-46586598D01*
X208461598Y-46431877D01*
X208587102Y-46252639D01*
X208657618Y-46101414D01*
X208703790Y-46048977D01*
X208770984Y-46029825D01*
X208837865Y-46050041D01*
X208882381Y-46101414D01*
X208952898Y-46252639D01*
X209078402Y-46431877D01*
X209233123Y-46586598D01*
X209412361Y-46712102D01*
X209610670Y-46804575D01*
X209822023Y-46861207D01*
X210004926Y-46877208D01*
X210039998Y-46880277D01*
X210040000Y-46880277D01*
X210040002Y-46880277D01*
X210068254Y-46877805D01*
X210257977Y-46861207D01*
X210469330Y-46804575D01*
X210667639Y-46712102D01*
X210846877Y-46586598D01*
X211001598Y-46431877D01*
X211127102Y-46252639D01*
X211197618Y-46101414D01*
X211243790Y-46048977D01*
X211310984Y-46029825D01*
X211377865Y-46050041D01*
X211422381Y-46101414D01*
X211492898Y-46252639D01*
X211618402Y-46431877D01*
X211773123Y-46586598D01*
X211952361Y-46712102D01*
X212150670Y-46804575D01*
X212362023Y-46861207D01*
X212544926Y-46877208D01*
X212579998Y-46880277D01*
X212580000Y-46880277D01*
X212580002Y-46880277D01*
X212608254Y-46877805D01*
X212797977Y-46861207D01*
X213009330Y-46804575D01*
X213207639Y-46712102D01*
X213386877Y-46586598D01*
X213541598Y-46431877D01*
X213667102Y-46252639D01*
X213737618Y-46101414D01*
X213783790Y-46048977D01*
X213850984Y-46029825D01*
X213917865Y-46050041D01*
X213962381Y-46101414D01*
X214032898Y-46252639D01*
X214158402Y-46431877D01*
X214313123Y-46586598D01*
X214492361Y-46712102D01*
X214690670Y-46804575D01*
X214902023Y-46861207D01*
X215084926Y-46877208D01*
X215119998Y-46880277D01*
X215120000Y-46880277D01*
X215120002Y-46880277D01*
X215148254Y-46877805D01*
X215337977Y-46861207D01*
X215549330Y-46804575D01*
X215747639Y-46712102D01*
X215926877Y-46586598D01*
X216081598Y-46431877D01*
X216207102Y-46252639D01*
X216277618Y-46101414D01*
X216323790Y-46048977D01*
X216390984Y-46029825D01*
X216457865Y-46050041D01*
X216502381Y-46101414D01*
X216572898Y-46252639D01*
X216698402Y-46431877D01*
X216853123Y-46586598D01*
X217032361Y-46712102D01*
X217230670Y-46804575D01*
X217442023Y-46861207D01*
X217624926Y-46877208D01*
X217659998Y-46880277D01*
X217660000Y-46880277D01*
X217660002Y-46880277D01*
X217688254Y-46877805D01*
X217877977Y-46861207D01*
X218089330Y-46804575D01*
X218287639Y-46712102D01*
X218466877Y-46586598D01*
X218621598Y-46431877D01*
X218723928Y-46285734D01*
X218778502Y-46242112D01*
X218848000Y-46234918D01*
X218910355Y-46266441D01*
X218945769Y-46326670D01*
X218949500Y-46356859D01*
X218949500Y-46506517D01*
X218953331Y-46530703D01*
X218964354Y-46600304D01*
X219021950Y-46713342D01*
X219021952Y-46713344D01*
X219021954Y-46713347D01*
X219111652Y-46803045D01*
X219111654Y-46803046D01*
X219111658Y-46803050D01*
X219221399Y-46858966D01*
X219224698Y-46860647D01*
X219318475Y-46875499D01*
X219318481Y-46875500D01*
X221081518Y-46875499D01*
X221175304Y-46860646D01*
X221288342Y-46803050D01*
X221378050Y-46713342D01*
X221435646Y-46600304D01*
X221435646Y-46600302D01*
X221435647Y-46600301D01*
X221450499Y-46506524D01*
X221450500Y-46506519D01*
X221450499Y-44743482D01*
X221435646Y-44649696D01*
X221378050Y-44536658D01*
X221378046Y-44536654D01*
X221378045Y-44536652D01*
X221288347Y-44446954D01*
X221288344Y-44446952D01*
X221288342Y-44446950D01*
X221211517Y-44407805D01*
X221175301Y-44389352D01*
X221081524Y-44374500D01*
X219318482Y-44374500D01*
X219237519Y-44387323D01*
X219224696Y-44389354D01*
X219111658Y-44446950D01*
X219111657Y-44446951D01*
X219111652Y-44446954D01*
X219021954Y-44536652D01*
X219021951Y-44536657D01*
X219021950Y-44536658D01*
X219002751Y-44574337D01*
X218964352Y-44649698D01*
X218949500Y-44743475D01*
X218949500Y-44893138D01*
X218929815Y-44960177D01*
X218877011Y-45005932D01*
X218807853Y-45015876D01*
X218744297Y-44986851D01*
X218723925Y-44964261D01*
X218621599Y-44818124D01*
X218546950Y-44743475D01*
X218466877Y-44663402D01*
X218328978Y-44566844D01*
X218287638Y-44537897D01*
X218188484Y-44491661D01*
X218089330Y-44445425D01*
X218089326Y-44445424D01*
X218089322Y-44445422D01*
X217877977Y-44388793D01*
X217660002Y-44369723D01*
X217659998Y-44369723D01*
X217514682Y-44382436D01*
X217442023Y-44388793D01*
X217442020Y-44388793D01*
X217230677Y-44445422D01*
X217230670Y-44445424D01*
X217230670Y-44445425D01*
X217227391Y-44446954D01*
X217032361Y-44537898D01*
X217032357Y-44537900D01*
X216853121Y-44663402D01*
X216698402Y-44818121D01*
X216572900Y-44997357D01*
X216572898Y-44997361D01*
X216502382Y-45148583D01*
X216456209Y-45201022D01*
X216389016Y-45220174D01*
X216322135Y-45199958D01*
X216277618Y-45148583D01*
X216246050Y-45080886D01*
X216207102Y-44997362D01*
X216207100Y-44997359D01*
X216207099Y-44997357D01*
X216081599Y-44818124D01*
X216006950Y-44743475D01*
X215926877Y-44663402D01*
X215788978Y-44566844D01*
X215747638Y-44537897D01*
X215648484Y-44491661D01*
X215549330Y-44445425D01*
X215549326Y-44445424D01*
X215549322Y-44445422D01*
X215337977Y-44388793D01*
X215120002Y-44369723D01*
X215119998Y-44369723D01*
X214974682Y-44382436D01*
X214902023Y-44388793D01*
X214902020Y-44388793D01*
X214690677Y-44445422D01*
X214690670Y-44445424D01*
X214690670Y-44445425D01*
X214687391Y-44446954D01*
X214492361Y-44537898D01*
X214492357Y-44537900D01*
X214313121Y-44663402D01*
X214158402Y-44818121D01*
X214032900Y-44997357D01*
X214032898Y-44997361D01*
X213962382Y-45148583D01*
X213916209Y-45201022D01*
X213849016Y-45220174D01*
X213782135Y-45199958D01*
X213737618Y-45148583D01*
X213706050Y-45080886D01*
X213667102Y-44997362D01*
X213667100Y-44997359D01*
X213667099Y-44997357D01*
X213541599Y-44818124D01*
X213466950Y-44743475D01*
X213386877Y-44663402D01*
X213248978Y-44566844D01*
X213207638Y-44537897D01*
X213108484Y-44491661D01*
X213009330Y-44445425D01*
X213009326Y-44445424D01*
X213009322Y-44445422D01*
X212797977Y-44388793D01*
X212580002Y-44369723D01*
X212579998Y-44369723D01*
X212434682Y-44382436D01*
X212362023Y-44388793D01*
X212362020Y-44388793D01*
X212150677Y-44445422D01*
X212150670Y-44445424D01*
X212150670Y-44445425D01*
X212147391Y-44446954D01*
X211952361Y-44537898D01*
X211952357Y-44537900D01*
X211773121Y-44663402D01*
X211618402Y-44818121D01*
X211492900Y-44997357D01*
X211492898Y-44997361D01*
X211422382Y-45148583D01*
X211376209Y-45201022D01*
X211309016Y-45220174D01*
X211242135Y-45199958D01*
X211197618Y-45148583D01*
X211166050Y-45080886D01*
X211127102Y-44997362D01*
X211127100Y-44997359D01*
X211127099Y-44997357D01*
X211001599Y-44818124D01*
X210926950Y-44743475D01*
X210846877Y-44663402D01*
X210708978Y-44566844D01*
X210667638Y-44537897D01*
X210568484Y-44491661D01*
X210469330Y-44445425D01*
X210469326Y-44445424D01*
X210469322Y-44445422D01*
X210257977Y-44388793D01*
X210040002Y-44369723D01*
X210039998Y-44369723D01*
X209894682Y-44382436D01*
X209822023Y-44388793D01*
X209822020Y-44388793D01*
X209610677Y-44445422D01*
X209610670Y-44445424D01*
X209610670Y-44445425D01*
X209607391Y-44446954D01*
X209412361Y-44537898D01*
X209412357Y-44537900D01*
X209233121Y-44663402D01*
X209078402Y-44818121D01*
X208952900Y-44997357D01*
X208952898Y-44997361D01*
X208882382Y-45148583D01*
X208836209Y-45201022D01*
X208769016Y-45220174D01*
X208702135Y-45199958D01*
X208657618Y-45148583D01*
X208626050Y-45080886D01*
X208587102Y-44997362D01*
X208587100Y-44997359D01*
X208587099Y-44997357D01*
X208461599Y-44818124D01*
X208386950Y-44743475D01*
X208306877Y-44663402D01*
X208168978Y-44566844D01*
X208127638Y-44537897D01*
X208028484Y-44491661D01*
X207929330Y-44445425D01*
X207929326Y-44445424D01*
X207929322Y-44445422D01*
X207717977Y-44388793D01*
X207500002Y-44369723D01*
X207499998Y-44369723D01*
X207354682Y-44382436D01*
X207282023Y-44388793D01*
X207282020Y-44388793D01*
X207070677Y-44445422D01*
X207070670Y-44445424D01*
X207070670Y-44445425D01*
X207067391Y-44446954D01*
X206872361Y-44537898D01*
X206872357Y-44537900D01*
X206693121Y-44663402D01*
X206538402Y-44818121D01*
X206412900Y-44997357D01*
X206412897Y-44997363D01*
X206397273Y-45030868D01*
X206351099Y-45083307D01*
X206283905Y-45102457D01*
X206217025Y-45082240D01*
X206172509Y-45030865D01*
X206133598Y-44947419D01*
X205998113Y-44753926D01*
X205998108Y-44753920D01*
X205831082Y-44586894D01*
X205637578Y-44451399D01*
X205423492Y-44351570D01*
X205423486Y-44351567D01*
X205210000Y-44294364D01*
X205210000Y-45191988D01*
X205152993Y-45159075D01*
X205025826Y-45125000D01*
X204894174Y-45125000D01*
X204767007Y-45159075D01*
X204710000Y-45191988D01*
X204710000Y-44294364D01*
X204709999Y-44294364D01*
X204496513Y-44351567D01*
X204496507Y-44351570D01*
X204282422Y-44451399D01*
X204282420Y-44451400D01*
X204088926Y-44586886D01*
X204088920Y-44586891D01*
X203921891Y-44753920D01*
X203921886Y-44753926D01*
X203786400Y-44947420D01*
X203786399Y-44947422D01*
X203747489Y-45030866D01*
X203701317Y-45083305D01*
X203634123Y-45102457D01*
X203567242Y-45082241D01*
X203522725Y-45030866D01*
X203510301Y-45004223D01*
X203507102Y-44997362D01*
X203507100Y-44997359D01*
X203507099Y-44997357D01*
X203381599Y-44818124D01*
X203306950Y-44743475D01*
X203226877Y-44663402D01*
X203088978Y-44566844D01*
X203047638Y-44537897D01*
X202948484Y-44491661D01*
X202849330Y-44445425D01*
X202849326Y-44445424D01*
X202849322Y-44445422D01*
X202637977Y-44388793D01*
X202420002Y-44369723D01*
X202419998Y-44369723D01*
X202274682Y-44382436D01*
X202202023Y-44388793D01*
X202202020Y-44388793D01*
X201990677Y-44445422D01*
X201990670Y-44445424D01*
X201990670Y-44445425D01*
X201987391Y-44446954D01*
X201792361Y-44537898D01*
X201792357Y-44537900D01*
X201613121Y-44663402D01*
X201458402Y-44818121D01*
X201332900Y-44997357D01*
X201332898Y-44997361D01*
X201262382Y-45148583D01*
X201216209Y-45201022D01*
X201149016Y-45220174D01*
X201082135Y-45199958D01*
X201037618Y-45148583D01*
X201006050Y-45080886D01*
X200967102Y-44997362D01*
X200967100Y-44997359D01*
X200967099Y-44997357D01*
X200841599Y-44818124D01*
X200766950Y-44743475D01*
X200686877Y-44663402D01*
X200548978Y-44566844D01*
X200507638Y-44537897D01*
X200408484Y-44491661D01*
X200309330Y-44445425D01*
X200309326Y-44445424D01*
X200309322Y-44445422D01*
X200097977Y-44388793D01*
X199880002Y-44369723D01*
X199879998Y-44369723D01*
X199734682Y-44382436D01*
X199662023Y-44388793D01*
X199662020Y-44388793D01*
X199450677Y-44445422D01*
X199450670Y-44445424D01*
X199450670Y-44445425D01*
X199447391Y-44446954D01*
X199252361Y-44537898D01*
X199252357Y-44537900D01*
X199073121Y-44663402D01*
X198918405Y-44818118D01*
X198842797Y-44926098D01*
X198788220Y-44969722D01*
X198765415Y-44976591D01*
X198650260Y-44999498D01*
X198650251Y-44999500D01*
X198570377Y-45032585D01*
X198500907Y-45040054D01*
X198438429Y-45008778D01*
X198421350Y-44989147D01*
X198301599Y-44818124D01*
X198226950Y-44743475D01*
X198146877Y-44663402D01*
X198008978Y-44566844D01*
X197967638Y-44537897D01*
X197868484Y-44491661D01*
X197769330Y-44445425D01*
X197769326Y-44445424D01*
X197769322Y-44445422D01*
X197557977Y-44388793D01*
X197340002Y-44369723D01*
X197339998Y-44369723D01*
X197194682Y-44382436D01*
X197122023Y-44388793D01*
X197122020Y-44388793D01*
X196910677Y-44445422D01*
X196910670Y-44445424D01*
X196910670Y-44445425D01*
X196907391Y-44446954D01*
X196712361Y-44537898D01*
X196712357Y-44537900D01*
X196533124Y-44663400D01*
X196378398Y-44818127D01*
X196340941Y-44871623D01*
X196286365Y-44915248D01*
X196239366Y-44924500D01*
X191923004Y-44924500D01*
X191787677Y-44951418D01*
X191787667Y-44951421D01*
X191660191Y-45004223D01*
X191545458Y-45080885D01*
X191482781Y-45143561D01*
X191477329Y-45148692D01*
X191432319Y-45188568D01*
X191432315Y-45188572D01*
X191426554Y-45196918D01*
X191419886Y-45204952D01*
X191420248Y-45205249D01*
X191416390Y-45209950D01*
X191381482Y-45262192D01*
X191380431Y-45263739D01*
X191335683Y-45328568D01*
X191335681Y-45328571D01*
X191309936Y-45396453D01*
X191308558Y-45399928D01*
X191286919Y-45452173D01*
X191286918Y-45452178D01*
X191286853Y-45452506D01*
X191281180Y-45472281D01*
X191275359Y-45487629D01*
X191268861Y-45541143D01*
X191267383Y-45550382D01*
X191260000Y-45587504D01*
X191260000Y-45606625D01*
X191259096Y-45621571D01*
X191254855Y-45656499D01*
X191259096Y-45691426D01*
X191260000Y-45706373D01*
X191260000Y-45725498D01*
X191267383Y-45762620D01*
X191268861Y-45771858D01*
X191275359Y-45825370D01*
X191275360Y-45825371D01*
X191281178Y-45840712D01*
X191286854Y-45860495D01*
X191286920Y-45860827D01*
X191286920Y-45860829D01*
X191308546Y-45913038D01*
X191309927Y-45916519D01*
X191335682Y-45984430D01*
X191335683Y-45984431D01*
X191380472Y-46049320D01*
X191381524Y-46050869D01*
X191416385Y-46103042D01*
X191420251Y-46107753D01*
X191419871Y-46108064D01*
X191426561Y-46116091D01*
X191432312Y-46124423D01*
X191432321Y-46124433D01*
X191477327Y-46164304D01*
X191482783Y-46169440D01*
X191513952Y-46200610D01*
X191513956Y-46200613D01*
X191524660Y-46207766D01*
X191537991Y-46218049D01*
X191559643Y-46237230D01*
X191559651Y-46237236D01*
X191596335Y-46256490D01*
X191607596Y-46263182D01*
X191612474Y-46266441D01*
X191628689Y-46277275D01*
X191628695Y-46277277D01*
X191628696Y-46277278D01*
X191657889Y-46289370D01*
X191668059Y-46294133D01*
X191682593Y-46301761D01*
X191710272Y-46316289D01*
X191710274Y-46316289D01*
X191710275Y-46316290D01*
X191723957Y-46319662D01*
X191732291Y-46321716D01*
X191750071Y-46327552D01*
X191756172Y-46330080D01*
X191805537Y-46339899D01*
X191810963Y-46341107D01*
X191875444Y-46357000D01*
X192045555Y-46357000D01*
X192045556Y-46357000D01*
X192110045Y-46341104D01*
X192115460Y-46339899D01*
X192164828Y-46330080D01*
X192164828Y-46330079D01*
X192170805Y-46328891D01*
X192170938Y-46329561D01*
X192198320Y-46325500D01*
X193684481Y-46325500D01*
X193751520Y-46345185D01*
X193797275Y-46397989D01*
X193807219Y-46467147D01*
X193778194Y-46530703D01*
X193772162Y-46537181D01*
X189955890Y-50353451D01*
X189955887Y-50353454D01*
X189910272Y-50421724D01*
X189894748Y-50444956D01*
X189879225Y-50468188D01*
X189879221Y-50468195D01*
X189826421Y-50595667D01*
X189826418Y-50595677D01*
X189799500Y-50731004D01*
X189799500Y-51033480D01*
X189779815Y-51100519D01*
X189763181Y-51121161D01*
X185126589Y-55757753D01*
X185065266Y-55791238D01*
X184995574Y-55786254D01*
X184951227Y-55757753D01*
X184939648Y-55746174D01*
X184939646Y-55746172D01*
X184780405Y-55630476D01*
X184752621Y-55616319D01*
X184701826Y-55568345D01*
X184685031Y-55500524D01*
X184707568Y-55434390D01*
X184752622Y-55395350D01*
X184832558Y-55354620D01*
X185004459Y-55229727D01*
X185004464Y-55229723D01*
X185154723Y-55079464D01*
X185154727Y-55079459D01*
X185279620Y-54907557D01*
X185376095Y-54718217D01*
X185441757Y-54516129D01*
X185441757Y-54516126D01*
X185452231Y-54450000D01*
X184404146Y-54450000D01*
X184442630Y-54383343D01*
X184475000Y-54262535D01*
X184475000Y-54137465D01*
X184442630Y-54016657D01*
X184404146Y-53950000D01*
X185452231Y-53950000D01*
X185441757Y-53883873D01*
X185441757Y-53883870D01*
X185376095Y-53681782D01*
X185279620Y-53492442D01*
X185154727Y-53320540D01*
X185154723Y-53320535D01*
X185004464Y-53170276D01*
X185004459Y-53170272D01*
X184832557Y-53045379D01*
X184643217Y-52948904D01*
X184441128Y-52883242D01*
X184250000Y-52852969D01*
X184250000Y-53795854D01*
X184183343Y-53757370D01*
X184062535Y-53725000D01*
X183937465Y-53725000D01*
X183816657Y-53757370D01*
X183750000Y-53795854D01*
X183750000Y-52852969D01*
X183558872Y-52883242D01*
X183558869Y-52883242D01*
X183356782Y-52948904D01*
X183167442Y-53045379D01*
X182995540Y-53170272D01*
X182995535Y-53170276D01*
X182845276Y-53320535D01*
X182845272Y-53320540D01*
X182720379Y-53492442D01*
X182623904Y-53681782D01*
X182558242Y-53883870D01*
X182558242Y-53883873D01*
X182547769Y-53950000D01*
X183595854Y-53950000D01*
X183557370Y-54016657D01*
X183525000Y-54137465D01*
X183525000Y-54262535D01*
X183557370Y-54383343D01*
X183595854Y-54450000D01*
X182547769Y-54450000D01*
X182558242Y-54516126D01*
X182558242Y-54516129D01*
X182623904Y-54718217D01*
X182720379Y-54907557D01*
X182845272Y-55079459D01*
X182845276Y-55079464D01*
X182995535Y-55229723D01*
X182995540Y-55229727D01*
X183167442Y-55354620D01*
X183247377Y-55395350D01*
X183298173Y-55443325D01*
X183314968Y-55511146D01*
X183292430Y-55577281D01*
X183247378Y-55616319D01*
X183219597Y-55630474D01*
X183139974Y-55688324D01*
X183060354Y-55746172D01*
X183060352Y-55746174D01*
X183060351Y-55746174D01*
X182921174Y-55885351D01*
X182921174Y-55885352D01*
X182921172Y-55885354D01*
X182871485Y-55953741D01*
X182805476Y-56044594D01*
X182716117Y-56219970D01*
X182655290Y-56407173D01*
X182624500Y-56601577D01*
X182624500Y-56798422D01*
X182655290Y-56992826D01*
X182716117Y-57180029D01*
X182787831Y-57320775D01*
X182805476Y-57355405D01*
X182921172Y-57514646D01*
X183060354Y-57653828D01*
X183219595Y-57769524D01*
X183288613Y-57804690D01*
X183356960Y-57839515D01*
X183407756Y-57887490D01*
X183424551Y-57955311D01*
X183402014Y-58021446D01*
X183356960Y-58060485D01*
X183219594Y-58130476D01*
X183128741Y-58196485D01*
X183060354Y-58246172D01*
X183060352Y-58246174D01*
X183060351Y-58246174D01*
X182921174Y-58385351D01*
X182921174Y-58385352D01*
X182921172Y-58385354D01*
X182882282Y-58438881D01*
X182805476Y-58544594D01*
X182716117Y-58719970D01*
X182655290Y-58907173D01*
X182624500Y-59101577D01*
X182624500Y-59298422D01*
X182655290Y-59492826D01*
X182716117Y-59680029D01*
X182766866Y-59779629D01*
X182805476Y-59855405D01*
X182921172Y-60014646D01*
X183060354Y-60153828D01*
X183060357Y-60153830D01*
X183181156Y-60241596D01*
X183223822Y-60296926D01*
X183229801Y-60366539D01*
X183197195Y-60428334D01*
X183142867Y-60460990D01*
X183014604Y-60498254D01*
X183014603Y-60498255D01*
X182873137Y-60581917D01*
X182873129Y-60581923D01*
X182756923Y-60698129D01*
X182756917Y-60698137D01*
X182673255Y-60839603D01*
X182673254Y-60839606D01*
X182627402Y-60997426D01*
X182627401Y-60997432D01*
X182624500Y-61034298D01*
X182624500Y-62033480D01*
X182604815Y-62100519D01*
X182588181Y-62121161D01*
X179795888Y-64913453D01*
X179795887Y-64913454D01*
X179719222Y-65028192D01*
X179666421Y-65155667D01*
X179666418Y-65155679D01*
X179642585Y-65275494D01*
X179642585Y-65275500D01*
X179639500Y-65291007D01*
X179639500Y-65291010D01*
X179639500Y-81127100D01*
X179619815Y-81194139D01*
X179618603Y-81195990D01*
X179552623Y-81294737D01*
X179499821Y-81422212D01*
X179499818Y-81422224D01*
X179475465Y-81544652D01*
X179475466Y-81544653D01*
X179475465Y-81544659D01*
X179472900Y-81557552D01*
X179472900Y-86886406D01*
X179472900Y-87024394D01*
X179472900Y-87024396D01*
X179472899Y-87024396D01*
X179113999Y-87024396D01*
X179113999Y-44145051D01*
X179114779Y-44131164D01*
X179124961Y-44040820D01*
X179131138Y-44013755D01*
X179158857Y-43934544D01*
X179170898Y-43909541D01*
X179215552Y-43838478D01*
X179232850Y-43816788D01*
X179292202Y-43757439D01*
X179313889Y-43740144D01*
X179384959Y-43695489D01*
X179409956Y-43683451D01*
X179489171Y-43655733D01*
X179516235Y-43649557D01*
X179556995Y-43644965D01*
X179606865Y-43639347D01*
X179620747Y-43638567D01*
X179679392Y-43638567D01*
X242870823Y-43638567D01*
X242937862Y-43658252D01*
G37*
%TD.AperFunction*%
%TD*%
M02*
