%TF.GenerationSoftware,KiCad,Pcbnew,8.0.7*%
%TF.CreationDate,2025-05-16T10:15:14+02:00*%
%TF.ProjectId,PROJETPCB,50524f4a-4554-4504-9342-2e6b69636164,rev?*%
%TF.SameCoordinates,Original*%
%TF.FileFunction,Soldermask,Top*%
%TF.FilePolarity,Negative*%
%FSLAX46Y46*%
G04 Gerber Fmt 4.6, Leading zero omitted, Abs format (unit mm)*
G04 Created by KiCad (PCBNEW 8.0.7) date 2025-05-16 10:15:14*
%MOMM*%
%LPD*%
G01*
G04 APERTURE LIST*
G04 Aperture macros list*
%AMRoundRect*
0 Rectangle with rounded corners*
0 $1 Rounding radius*
0 $2 $3 $4 $5 $6 $7 $8 $9 X,Y pos of 4 corners*
0 Add a 4 corners polygon primitive as box body*
4,1,4,$2,$3,$4,$5,$6,$7,$8,$9,$2,$3,0*
0 Add four circle primitives for the rounded corners*
1,1,$1+$1,$2,$3*
1,1,$1+$1,$4,$5*
1,1,$1+$1,$6,$7*
1,1,$1+$1,$8,$9*
0 Add four rect primitives between the rounded corners*
20,1,$1+$1,$2,$3,$4,$5,0*
20,1,$1+$1,$4,$5,$6,$7,0*
20,1,$1+$1,$6,$7,$8,$9,0*
20,1,$1+$1,$8,$9,$2,$3,0*%
G04 Aperture macros list end*
%ADD10R,1.700000X1.700000*%
%ADD11O,1.700000X1.700000*%
%ADD12RoundRect,0.250000X-0.725000X0.600000X-0.725000X-0.600000X0.725000X-0.600000X0.725000X0.600000X0*%
%ADD13O,1.950000X1.700000*%
%ADD14RoundRect,0.250000X0.725000X-0.600000X0.725000X0.600000X-0.725000X0.600000X-0.725000X-0.600000X0*%
G04 APERTURE END LIST*
D10*
%TO.C,J1*%
X220200000Y-45625000D03*
D11*
X217660000Y-45625000D03*
X215120000Y-45625000D03*
X212580000Y-45625000D03*
X210040000Y-45625000D03*
X207500000Y-45625000D03*
X204960000Y-45625000D03*
X202420000Y-45625000D03*
X199880000Y-45625000D03*
X197340000Y-45625000D03*
%TD*%
D12*
%TO.C,JOYSTICK1*%
X237617000Y-67183000D03*
D13*
X237617000Y-69683000D03*
X237617000Y-72183000D03*
X237617000Y-74683000D03*
X237617000Y-77183000D03*
%TD*%
D10*
%TO.C,J5*%
X229475000Y-93900000D03*
D11*
X232015000Y-93900000D03*
X234555000Y-93900000D03*
X237095000Y-93900000D03*
X239635000Y-93900000D03*
X242175000Y-93900000D03*
%TD*%
D10*
%TO.C,J4*%
X206525000Y-93875000D03*
D11*
X209065000Y-93875000D03*
X211605000Y-93875000D03*
X214145000Y-93875000D03*
X216685000Y-93875000D03*
X219225000Y-93875000D03*
X221765000Y-93875000D03*
X224305000Y-93875000D03*
%TD*%
D14*
%TO.C,LSM9DS1*%
X184658000Y-77731000D03*
D13*
X184658000Y-75231000D03*
X184658000Y-72731000D03*
X184658000Y-70231000D03*
%TD*%
D14*
%TO.C,AS5048B-TS1*%
X184000000Y-61700000D03*
D13*
X184000000Y-59200000D03*
X184000000Y-56700000D03*
X184000000Y-54200000D03*
%TD*%
D10*
%TO.C,J2*%
X242060000Y-45625000D03*
D11*
X239520000Y-45625000D03*
X236980000Y-45625000D03*
X234440000Y-45625000D03*
X231900000Y-45625000D03*
X229360000Y-45625000D03*
X226820000Y-45625000D03*
X224280000Y-45625000D03*
%TD*%
M02*
