M48
; DRILL file {KiCad 8.0.7} date 2025-05-16T10:15:22+0200
; FORMAT={-:-/ absolute / inch / decimal}
; #@! TF.CreationDate,2025-05-16T10:15:22+02:00
; #@! TF.GenerationSoftware,Kicad,Pcbnew,8.0.7
; #@! TF.FileFunction,Plated,1,2,PTH
FMAT,2
INCH
; #@! TA.AperFunction,Plated,PTH,ViaDrill
T1C0.0118
; #@! TA.AperFunction,Plated,PTH,ViaDrill
T2C0.0240
; #@! TA.AperFunction,Plated,PTH,ViaDrill
T3C0.0315
; #@! TA.AperFunction,Plated,PTH,ComponentDrill
T4C0.0374
; #@! TA.AperFunction,Plated,PTH,ComponentDrill
T5C0.0394
%
G90
G05
T1
X7.5Y-2.5
X7.5575Y-1.7975
T2
X9.55Y-1.975
T3
X7.145Y-3.235
X7.174Y-1.906
X7.18Y-2.58
X7.271Y-1.916
X7.285Y-3.265
X7.425Y-3.23
X7.437Y-1.972
X7.535Y-3.09
X8.01Y-1.925
X8.135Y-1.925
X8.5Y-3.25
X8.65Y-3.56
X8.75Y-3.54
X9.12Y-2.635
X9.165Y-2.505
X9.28Y-2.465
X9.375Y-3.215
X9.56Y-3.215
T4
X7.2441Y-2.1339
X7.2441Y-2.2323
X7.2441Y-2.3307
X7.2441Y-2.4291
X7.27Y-2.765
X7.27Y-2.8634
X7.27Y-2.9619
X7.27Y-3.0603
X9.355Y-2.645
X9.355Y-2.7434
X9.355Y-2.8419
X9.355Y-2.9403
X9.355Y-3.0387
T5
X7.7693Y-1.7963
X7.8693Y-1.7963
X7.9693Y-1.7963
X8.0693Y-1.7963
X8.1309Y-3.6959
X8.1693Y-1.7963
X8.2309Y-3.6959
X8.2693Y-1.7963
X8.3309Y-3.6959
X8.3693Y-1.7963
X8.4309Y-3.6959
X8.4693Y-1.7963
X8.5309Y-3.6959
X8.5693Y-1.7963
X8.6309Y-3.6959
X8.6693Y-1.7963
X8.7309Y-3.6959
X8.8299Y-1.7963
X8.8309Y-3.6959
X8.9299Y-1.7963
X9.0299Y-1.7963
X9.0344Y-3.6969
X9.1299Y-1.7963
X9.1344Y-3.6969
X9.2299Y-1.7963
X9.2344Y-3.6969
X9.3299Y-1.7963
X9.3344Y-3.6969
X9.4299Y-1.7963
X9.4344Y-3.6969
X9.5299Y-1.7963
X9.5344Y-3.6969
M30
